<svg width="1024" height="275" viewBox="0 0 1024 275" fill="none" xmlns="http://www.w3.org/2000/svg">
<rect y="201" width="160" height="74" fill="white"/>
<rect x="173" y="201" width="160" height="74" fill="white"/>
<rect x="346" y="201" width="160" height="74" fill="white"/>
<rect x="519" y="201" width="505" height="74" fill="white"/>
<rect width="160" height="200" fill="#55CFEA"/>
<path d="M51.542 78.138V78.786H43.838V78.138H51.542ZM43.838 80.73V80.028H51.542V80.73H43.838ZM41.768 82.62H43.838V82.08H51.542V82.602H53.702V76.77H41.768V82.62ZM48.59 70.218H51.488V70.902H48.59V70.218ZM48.59 68.076H51.488V68.742H48.59V68.076ZM53.612 72.144V70.218H55.664V68.742H53.612V66.834H48.59V65.7H46.448V66.834H41.372V68.076H46.448V68.742H39.536V70.218H46.448V70.902H41.174V72.144H46.448V72.774H40.778V74.07H46.448V74.718H39.518V76.212H55.664V74.718H48.59V74.07H54.35V72.774H48.59V72.144H53.612ZM74.924 72.126H71.324V71.028H74.924V72.126ZM74.924 74.7H71.324V73.602H74.924V74.7ZM74.924 77.328H71.324V76.194H74.924V77.328ZM69.398 69.426V78.912H76.958V69.426H73.718C73.862 69.066 74.024 68.67 74.186 68.274H77.408V66.456H68.876V68.274H71.882C71.81 68.652 71.738 69.048 71.63 69.426H69.398ZM66.986 66.06C66.824 66.708 66.482 67.644 66.176 68.256L67.544 68.706C67.904 68.148 68.318 67.356 68.75 66.528L66.986 66.06ZM63.566 68.184C63.44 67.608 63.044 66.78 62.648 66.132L61.208 66.672C61.604 67.338 61.964 68.202 62.054 68.778L63.566 68.184ZM63.926 73.98H65.78V72.144C66.518 72.72 67.346 73.368 67.796 73.8L68.912 72.306C68.426 71.982 66.554 70.866 65.816 70.488H68.678V68.814H65.78V65.97H63.926V68.814H61.064V70.488H63.332C62.63 71.442 61.64 72.36 60.686 72.882C61.064 73.206 61.622 73.836 61.91 74.268C62.612 73.782 63.314 73.08 63.926 72.288V73.98ZM68.75 79.992C68.066 79.362 66.734 78.426 65.69 77.76C65.708 77.652 65.726 77.526 65.744 77.418H68.804V75.582H65.798V74.358H63.872V75.582H61.064V77.418H63.764C63.53 78.606 62.774 79.848 60.596 80.73C60.974 81.108 61.532 81.846 61.73 82.314C63.494 81.558 64.502 80.586 65.078 79.524C65.978 80.19 66.914 80.928 67.418 81.432L67.616 81.216C68.066 81.594 68.642 82.17 68.966 82.566C70.244 82.008 71.774 80.982 72.674 80.046L70.928 78.93C70.244 79.704 68.894 80.622 67.67 81.162L68.75 79.992ZM73.358 80.1C74.348 80.82 75.644 81.864 76.238 82.548L77.858 81.396C77.192 80.712 75.842 79.722 74.87 79.056L73.358 80.1ZM96.47 68.4H93.32V70.146C93.32 71.586 93.734 72 95.354 72H97.28C98.414 72 98.882 71.658 99.062 70.416C98.594 70.326 97.892 70.11 97.568 69.876C97.496 70.488 97.424 70.596 97.064 70.596H95.606C95.156 70.596 95.066 70.524 95.066 70.128V69.768H98.288V66.294H92.978V67.644H96.47V68.4ZM90.566 68.4H87.416V70.146C87.416 71.586 87.866 72 89.45 72H91.34C92.42 72 92.906 71.658 93.086 70.434C92.6 70.344 91.916 70.128 91.61 69.894C91.538 70.488 91.466 70.596 91.106 70.596H89.72C89.252 70.596 89.18 70.524 89.18 70.146V69.768H92.366V66.294H87.164V67.644H90.566V68.4ZM86.606 69.138C86.156 68.238 85.022 67.032 84.086 66.168L82.394 67.248C83.312 68.148 84.392 69.444 84.788 70.326L86.606 69.138ZM91.844 74.646H93.932V75.834H91.844V74.646ZM90.818 77.418H95.012L93.644 78.192C94.832 78.768 96.092 79.596 96.776 80.154L98.954 79.362C98.144 78.786 96.722 78.012 95.48 77.418H98.99V75.834H95.966V74.646H98.432V73.08H95.966V72.126H93.932V73.08H91.844V72.126H89.864V73.08H87.452V74.646H89.864V75.834H86.93V77.418H90.35C89.594 77.994 88.334 78.498 87.164 78.858C87.596 79.146 88.316 79.758 88.676 80.118C87.632 79.866 86.84 79.344 86.354 78.498V72.738H82.52V74.7H84.374V78.678C83.69 79.29 82.898 79.884 82.25 80.352L83.258 82.386C84.122 81.612 84.824 80.91 85.508 80.19C86.588 81.594 88.064 82.116 90.224 82.206C92.474 82.314 96.452 82.278 98.738 82.152C98.828 81.576 99.134 80.64 99.368 80.154C96.848 80.37 92.438 80.424 90.224 80.316C89.684 80.298 89.198 80.244 88.748 80.136C89.972 79.632 91.484 78.804 92.384 77.958L90.818 77.418ZM112.166 70.794V69.354H115.082C114.542 69.858 113.966 70.326 113.372 70.794H112.166ZM120.194 72.594V70.794H116.288C117.458 69.75 118.52 68.616 119.456 67.428L117.728 66.474C117.188 67.176 116.594 67.86 115.946 68.526V67.608H112.166V65.754H110.042V67.608H105.902V69.354H110.042V70.794H104.516V72.594H110.816C110.294 72.918 109.754 73.242 109.196 73.548L108.62 73.476L108.53 73.89C106.982 74.718 105.362 75.402 103.724 75.978C104.12 76.374 104.75 77.184 105.038 77.616C106.028 77.22 107.018 76.788 107.99 76.32C107.738 77.346 107.468 78.318 107.216 79.074L109.358 79.38L109.574 78.552H115.892C115.658 79.686 115.37 80.298 115.082 80.532C114.866 80.676 114.632 80.712 114.29 80.712C113.822 80.712 112.688 80.676 111.644 80.568C112.022 81.144 112.292 81.954 112.328 82.548C113.408 82.602 114.434 82.602 115.028 82.548C115.784 82.512 116.27 82.386 116.756 81.918C117.368 81.378 117.8 80.154 118.232 77.724C118.304 77.418 118.34 76.824 118.34 76.824H110.024L110.24 75.906C112.976 75.708 116.072 75.366 118.304 74.754L116.99 73.35C115.658 73.71 113.696 74.034 111.68 74.268C112.508 73.746 113.318 73.188 114.092 72.594H120.194ZM79.0202 106.038H80.9822V102.204H84.6182V100.332H80.9822V96.498H79.0202V100.332H75.3842V102.204H79.0202V106.038ZM48.608 123.912C48.554 123.534 48.392 123.066 48.176 122.652H51.47C51.326 123.066 51.164 123.534 51.002 123.912H48.608ZM53.324 131.598C53.324 131.814 53.252 131.868 53.054 131.886C52.928 131.886 52.658 131.886 52.334 131.886V128.754H50.642V127.764H52.766V126.468H50.642V125.532H53.324V131.598ZM50.858 130.95H48.914V129.96H50.858V130.95ZM46.214 122.724C46.412 123.084 46.574 123.516 46.664 123.912H44.612V133.524H46.538V125.532H49.112V126.468H47.006V127.764H49.112V128.754H47.456V132.714H48.914V132.174H51.722C51.902 132.624 52.082 133.182 52.136 133.596C53.216 133.596 53.972 133.578 54.566 133.29C55.142 132.966 55.286 132.498 55.286 131.634V123.912H52.946C53.144 123.534 53.36 123.12 53.594 122.652H55.664V120.996H50.804V119.754H48.734V120.996H44.144V122.652H46.52L46.214 122.724ZM43.874 123.066C43.298 122.202 42.056 121.014 41.048 120.204L39.41 121.428C40.418 122.292 41.606 123.534 42.11 124.416L43.874 123.066ZM43.388 126.738H39.338V128.7H41.354V132.624C40.634 133.236 39.824 133.83 39.122 134.28L40.13 136.404C41.048 135.63 41.786 134.946 42.506 134.244C43.586 135.63 45.026 136.152 47.168 136.242C49.364 136.332 53.18 136.296 55.412 136.188C55.52 135.594 55.826 134.604 56.078 134.1C53.594 134.298 49.346 134.352 47.186 134.262C45.35 134.19 44.09 133.686 43.388 132.48V126.738ZM73.268 133.956V130.356H76.562V128.358H73.268V125.406H76.94V123.39H73.268V119.862H71.126V123.39H69.686C69.866 122.58 70.01 121.734 70.136 120.888L68.048 120.6C67.868 122.13 67.544 123.678 67.094 124.992C66.842 124.29 66.464 123.426 66.104 122.724L65.06 123.156V119.754H62.918V123.426L61.406 123.21C61.28 124.686 60.956 126.702 60.524 127.89L62.108 128.466C62.522 127.188 62.81 125.208 62.918 123.696V136.566H65.06V124.272C65.366 125.01 65.636 125.802 65.744 126.342L66.77 125.874C66.59 126.252 66.41 126.594 66.23 126.918C66.734 127.134 67.706 127.62 68.138 127.89C68.516 127.206 68.876 126.342 69.146 125.406H71.126V128.358H67.652V130.356H71.126V133.956H66.32V135.99H77.516V133.956H73.268ZM90.944 130.122V128.43H92.726V129.51C92.726 129.708 92.726 129.924 92.708 130.122H90.944ZM96.56 128.43V130.122H94.634C94.652 129.942 94.652 129.744 94.652 129.564V128.43H96.56ZM91.592 123.876C92.438 123.156 93.176 122.364 93.68 121.608C94.22 122.364 94.994 123.174 95.858 123.876H91.592ZM98.486 131.76V126.792H94.652V125.64H97.028V124.758C97.496 125.064 97.982 125.352 98.45 125.586C98.738 125.01 99.152 124.218 99.548 123.714C97.676 123.012 95.84 121.5 94.598 119.772H92.654C91.79 121.158 90.224 122.688 88.478 123.57V123.444H86.84V119.754H84.86V123.444H82.664V125.424H84.734C84.266 127.566 83.294 130.05 82.25 131.472C82.574 131.976 83.024 132.804 83.222 133.38C83.834 132.516 84.392 131.274 84.86 129.924V136.548H86.84V128.898C87.218 129.654 87.578 130.428 87.776 130.95L88.856 129.294C88.586 128.844 87.326 126.918 86.84 126.288V125.424H88.478V124.56C88.694 124.92 88.874 125.298 89 125.604C89.504 125.352 89.99 125.064 90.476 124.722V125.64H92.726V126.792H89.09V131.76H92.384C91.88 133.038 90.674 134.208 87.92 135.072C88.244 135.414 88.856 136.224 89.054 136.656C91.7 135.81 93.14 134.532 93.896 133.092C94.994 135.036 96.416 135.954 98.198 136.638C98.432 136.008 98.936 135.306 99.422 134.856C97.694 134.316 96.344 133.632 95.3 131.76H98.486ZM107.378 127.44C108.872 126.54 110.222 125.37 111.284 124.056V126.954H113.39V124.128C114.488 125.424 115.874 126.576 117.404 127.44H107.378ZM109.34 134.37V133.614H115.388V134.37H109.34ZM109.34 131.382H115.388V132.138H109.34V131.382ZM115.388 129.906H109.34V129.186H115.388V129.906ZM120.428 123.606V121.752H113.39V119.754H111.284V121.752H104.39V123.606H109.232C107.846 124.992 105.866 126.198 103.886 126.846C104.336 127.242 104.912 128.016 105.218 128.502C105.92 128.232 106.586 127.89 107.252 127.512V134.37H104.282V136.242H120.554V134.37H117.602V127.548C118.214 127.89 118.844 128.196 119.492 128.43C119.816 127.89 120.428 127.098 120.878 126.72C118.826 126.09 116.792 124.956 115.37 123.606H120.428Z" fill="white"/>
<rect x="173" width="160" height="200" fill="#55CFEA"/>
<path d="M224.826 40H231.056V38.334H229.11V29.64H227.584C226.926 30.046 226.212 30.312 225.176 30.508V31.782H227.052V38.334H224.826V40ZM239.23 30.97C238.698 30.382 237.564 29.542 236.738 29.01L235.548 30.228C236.402 30.844 237.494 31.74 237.984 32.342L239.23 30.97ZM238.32 34.512C237.172 35.786 235.926 37.074 235.156 37.83L236.22 39.244C237.172 38.306 238.306 37.088 239.286 35.954L238.32 34.512ZM244.116 32.216H246.09C245.838 33.014 245.488 33.812 245.208 34.344C245.6 34.498 246.286 34.834 246.622 35.03C247.182 34.022 247.84 32.58 248.232 31.18L247 30.466L246.678 30.55H241.862C242.086 29.892 242.268 29.206 242.422 28.506L240.686 28.184C240.252 30.424 239.412 32.58 238.222 33.868C238.642 34.064 239.454 34.512 239.79 34.778C240.322 34.092 240.826 33.21 241.246 32.216H242.366V33.658C242.366 35.212 241.428 38.306 237.648 39.818C237.942 40.126 238.46 40.826 238.656 41.218C241.484 39.986 242.912 37.606 243.248 36.36C243.514 37.606 244.816 40.07 247.322 41.218C247.588 40.784 248.064 40.098 248.386 39.692C244.956 38.194 244.116 35.142 244.116 33.644V32.216ZM262.512 38.978H261V33.308H262.512V38.978ZM254.434 33.308H255.862V38.978H254.434V33.308ZM259.502 34.274H257.36V33.308H259.502V34.274ZM257.36 37.942H259.502V38.978H257.36V37.942ZM259.502 36.64H257.36V35.576H259.502V36.64ZM264.85 30.508V28.94H252.25V30.508H257.36C257.304 30.928 257.22 31.362 257.136 31.768H252.824V41.218H254.434V40.504H262.512V41.218H264.206V31.768H258.886C258.998 31.362 259.138 30.942 259.264 30.508H264.85ZM278.668 30.872C278.542 31.432 278.332 32.132 278.136 32.636H276.666L276.722 32.622C276.694 32.16 276.512 31.46 276.302 30.872H278.668ZM278.626 36.458C278.444 37.116 278.178 37.662 277.814 38.096C277.212 37.872 276.624 37.662 276.078 37.494C276.246 37.158 276.428 36.808 276.596 36.458H278.626ZM281.79 34.05V32.636H279.634C279.844 32.132 280.082 31.516 280.306 30.872H281.454V29.472H278.332V28.142H276.638V29.472H273.516V30.872H275.07L274.79 30.928C274.972 31.446 275.126 32.118 275.196 32.636H273.096V34.05H275.938C275.812 34.372 275.672 34.708 275.518 35.058H273.334L273.222 34.162L272.158 34.442V32.314H273.236V30.788H272.158V28.156H270.562V30.788H268.938V32.314H270.562V34.834C269.848 35.002 269.19 35.156 268.658 35.268L269.008 36.878L270.562 36.458V39.328C270.562 39.538 270.492 39.594 270.324 39.594C270.142 39.608 269.568 39.608 269.022 39.58C269.232 40.042 269.442 40.756 269.484 41.204C270.45 41.204 271.108 41.148 271.57 40.868C272.018 40.616 272.158 40.168 272.158 39.342V36.01C272.508 35.912 272.858 35.8 273.208 35.702V36.458H274.888C274.538 37.214 274.174 37.942 273.866 38.502L275.294 38.964L275.434 38.712C275.77 38.824 276.12 38.964 276.47 39.104C275.574 39.524 274.37 39.762 272.76 39.902C272.998 40.21 273.25 40.784 273.376 41.246C275.49 40.966 277.016 40.546 278.108 39.818C279.088 40.294 279.984 40.784 280.572 41.218L281.622 39.972C281.034 39.566 280.194 39.132 279.27 38.712C279.718 38.11 280.04 37.368 280.264 36.458H281.776V35.058H277.268C277.436 34.722 277.59 34.372 277.73 34.05H281.79Z" fill="white"/>
<path d="M211.006 105.174V97.83H214.804C215.326 97.83 215.956 97.866 216.496 97.902V95.436C215.974 95.49 215.344 95.544 214.804 95.544H205.012C204.508 95.544 203.77 95.508 203.302 95.436V97.902C203.752 97.866 204.526 97.83 205.012 97.83H208.486V105.174H203.914C203.356 105.174 202.708 105.138 202.15 105.03V107.64C202.744 107.568 203.374 107.55 203.914 107.55H215.776C216.19 107.55 216.946 107.568 217.45 107.64V105.03C217 105.102 216.424 105.174 215.776 105.174H211.006ZM226.738 94.32L225.046 96.12C226.36 97.038 228.61 99 229.546 100.008L231.382 98.118C230.338 97.038 227.998 95.166 226.738 94.32ZM224.488 106.308L226 108.684C228.538 108.252 230.86 107.244 232.678 106.146C235.576 104.4 237.97 101.916 239.338 99.486L237.934 96.948C236.8 99.378 234.442 102.132 231.382 103.95C229.636 104.994 227.296 105.912 224.488 106.308ZM257.122 94.176L255.628 94.806C256.276 95.724 256.69 96.498 257.212 97.632L258.778 96.966C258.364 96.138 257.644 94.932 257.122 94.176ZM259.606 93.312L258.076 93.942C258.742 94.842 259.192 95.544 259.768 96.678L261.298 95.994C260.866 95.202 260.164 94.032 259.606 93.312ZM249.31 93.834L248.014 95.814C249.202 96.48 251.074 97.686 252.082 98.388L253.414 96.408C252.478 95.76 250.498 94.482 249.31 93.834ZM245.98 106.614L247.33 108.972C248.914 108.684 251.506 107.784 253.342 106.758C256.276 105.048 258.832 102.78 260.488 100.278L259.102 97.83C257.68 100.404 255.16 102.87 252.1 104.58C250.156 105.66 247.996 106.272 245.98 106.614ZM246.538 97.938L245.242 99.918C246.448 100.566 248.32 101.772 249.346 102.492L250.66 100.476C249.742 99.828 247.762 98.586 246.538 97.938ZM267.148 107.334C267.814 107.28 268.696 107.226 269.398 107.226H279.73C280.27 107.226 281.08 107.262 281.71 107.334V104.58C281.098 104.652 280.342 104.706 279.73 104.706H269.398C268.696 104.706 267.85 104.634 267.148 104.58V107.334ZM268.66 98.388C269.272 98.352 270.1 98.316 270.784 98.316H278.218C278.848 98.316 279.694 98.37 280.216 98.388V95.778C279.712 95.832 278.938 95.886 278.218 95.886H270.766C270.154 95.886 269.308 95.85 268.66 95.778V98.388ZM294.436 98.244C294.526 98.82 294.562 99.306 294.562 99.864C294.562 102.816 294.13 104.724 291.844 106.308C291.178 106.794 290.53 107.1 289.954 107.298L292.042 109.008C296.956 106.38 297.046 102.708 297.046 98.244H294.436ZM302.95 94.482C302.626 94.59 301.636 94.644 301.132 94.644H291.43C290.674 94.644 289.918 94.572 289.234 94.464V96.966C290.08 96.894 290.674 96.84 291.43 96.84H300.808C300.34 97.722 298.936 99.306 297.496 100.188L299.35 101.682C301.132 100.422 302.842 98.154 303.688 96.75C303.85 96.48 304.192 96.048 304.39 95.814L302.95 94.482Z" fill="white"/>
<rect x="346" width="160" height="200" fill="#55CFEA"/>
<path d="M397.28 40H404.224V38.264H401.97C401.494 38.264 400.808 38.32 400.29 38.376C402.18 36.528 403.734 34.512 403.734 32.636C403.734 30.704 402.432 29.444 400.472 29.444C399.058 29.444 398.134 30.004 397.182 31.012L398.302 32.132C398.82 31.558 399.45 31.068 400.206 31.068C401.186 31.068 401.76 31.698 401.76 32.748C401.76 34.344 400.094 36.29 397.28 38.81V40ZM412.23 30.97C411.698 30.382 410.564 29.542 409.738 29.01L408.548 30.228C409.402 30.844 410.494 31.74 410.984 32.342L412.23 30.97ZM411.32 34.512C410.172 35.786 408.926 37.074 408.156 37.83L409.22 39.244C410.172 38.306 411.306 37.088 412.286 35.954L411.32 34.512ZM417.116 32.216H419.09C418.838 33.014 418.488 33.812 418.208 34.344C418.6 34.498 419.286 34.834 419.622 35.03C420.182 34.022 420.84 32.58 421.232 31.18L420 30.466L419.678 30.55H414.862C415.086 29.892 415.268 29.206 415.422 28.506L413.686 28.184C413.252 30.424 412.412 32.58 411.222 33.868C411.642 34.064 412.454 34.512 412.79 34.778C413.322 34.092 413.826 33.21 414.246 32.216H415.366V33.658C415.366 35.212 414.428 38.306 410.648 39.818C410.942 40.126 411.46 40.826 411.656 41.218C414.484 39.986 415.912 37.606 416.248 36.36C416.514 37.606 417.816 40.07 420.322 41.218C420.588 40.784 421.064 40.098 421.386 39.692C417.956 38.194 417.116 35.142 417.116 33.644V32.216ZM435.512 38.978H434V33.308H435.512V38.978ZM427.434 33.308H428.862V38.978H427.434V33.308ZM432.502 34.274H430.36V33.308H432.502V34.274ZM430.36 37.942H432.502V38.978H430.36V37.942ZM432.502 36.64H430.36V35.576H432.502V36.64ZM437.85 30.508V28.94H425.25V30.508H430.36C430.304 30.928 430.22 31.362 430.136 31.768H425.824V41.218H427.434V40.504H435.512V41.218H437.206V31.768H431.886C431.998 31.362 432.138 30.942 432.264 30.508H437.85ZM451.668 30.872C451.542 31.432 451.332 32.132 451.136 32.636H449.666L449.722 32.622C449.694 32.16 449.512 31.46 449.302 30.872H451.668ZM451.626 36.458C451.444 37.116 451.178 37.662 450.814 38.096C450.212 37.872 449.624 37.662 449.078 37.494C449.246 37.158 449.428 36.808 449.596 36.458H451.626ZM454.79 34.05V32.636H452.634C452.844 32.132 453.082 31.516 453.306 30.872H454.454V29.472H451.332V28.142H449.638V29.472H446.516V30.872H448.07L447.79 30.928C447.972 31.446 448.126 32.118 448.196 32.636H446.096V34.05H448.938C448.812 34.372 448.672 34.708 448.518 35.058H446.334L446.222 34.162L445.158 34.442V32.314H446.236V30.788H445.158V28.156H443.562V30.788H441.938V32.314H443.562V34.834C442.848 35.002 442.19 35.156 441.658 35.268L442.008 36.878L443.562 36.458V39.328C443.562 39.538 443.492 39.594 443.324 39.594C443.142 39.608 442.568 39.608 442.022 39.58C442.232 40.042 442.442 40.756 442.484 41.204C443.45 41.204 444.108 41.148 444.57 40.868C445.018 40.616 445.158 40.168 445.158 39.342V36.01C445.508 35.912 445.858 35.8 446.208 35.702V36.458H447.888C447.538 37.214 447.174 37.942 446.866 38.502L448.294 38.964L448.434 38.712C448.77 38.824 449.12 38.964 449.47 39.104C448.574 39.524 447.37 39.762 445.76 39.902C445.998 40.21 446.25 40.784 446.376 41.246C448.49 40.966 450.016 40.546 451.108 39.818C452.088 40.294 452.984 40.784 453.572 41.218L454.622 39.972C454.034 39.566 453.194 39.132 452.27 38.712C452.718 38.11 453.04 37.368 453.264 36.458H454.776V35.058H450.268C450.436 34.722 450.59 34.372 450.73 34.05H454.79Z" fill="white"/>
<path d="M400.008 92.88C397.812 93.528 394.158 94.014 390.954 94.23C391.17 94.68 391.44 95.454 391.512 95.94C394.788 95.76 398.658 95.328 401.43 94.554L400.008 92.88ZM399.468 100.566C400.206 99.504 401.142 97.83 401.916 96.3L399.882 95.562C399.432 96.93 398.514 98.766 397.812 99.9L399.468 100.566ZM397.272 99.144C397.236 98.244 396.876 96.912 396.444 95.868L394.662 96.21C395.058 97.29 395.364 98.658 395.382 99.522L397.272 99.144ZM394.122 99.684C393.96 98.766 393.438 97.362 392.898 96.318L391.206 96.75C391.71 97.866 392.16 99.306 392.304 100.206L394.122 99.684ZM390.612 100.296L389.154 100.71V98.118H390.792V96.156H389.154V92.772H387.21V96.156H385.32V98.118H387.21V101.232C386.4 101.43 385.644 101.628 385.032 101.754L385.5 103.806C386.022 103.662 386.616 103.5 387.21 103.32V107.298C387.21 107.532 387.12 107.604 386.904 107.604C386.688 107.622 386.058 107.622 385.41 107.586C385.662 108.162 385.896 109.044 385.95 109.566C387.138 109.584 387.894 109.512 388.452 109.17C388.992 108.828 389.154 108.288 389.154 107.298V102.744C389.73 102.582 390.306 102.402 390.882 102.222L390.612 100.296ZM401.772 103.554V101.7H397.434V99.882H395.418V101.7H391.188V103.554H394.284C393.276 105.03 391.674 106.38 390.036 107.118C390.504 107.514 391.116 108.288 391.458 108.792C392.934 107.964 394.356 106.614 395.418 105.084V109.44H397.434V105.174C398.406 106.596 399.63 107.892 400.872 108.702C401.196 108.198 401.808 107.46 402.276 107.082C400.836 106.326 399.396 104.976 398.46 103.554H401.772ZM416.46 102.294V100.08H420.258V102.294H416.46ZM410.862 102.294C410.898 101.628 410.916 100.98 410.916 100.404V100.08H414.3V102.294H410.862ZM414.3 95.994V98.082H410.916V95.994H414.3ZM420.258 98.082H416.46V95.994H420.258V98.082ZM422.382 93.96H408.792V100.386C408.792 102.906 408.63 106.11 406.668 108.27C407.154 108.522 408.018 109.26 408.36 109.656C409.656 108.252 410.304 106.272 410.628 104.31H414.3V109.332H416.46V104.31H420.258V107.01C420.258 107.334 420.132 107.442 419.79 107.442C419.466 107.442 418.278 107.46 417.27 107.406C417.54 107.964 417.882 108.882 417.954 109.458C419.574 109.476 420.672 109.44 421.41 109.08C422.13 108.756 422.382 108.18 422.382 107.028V93.96ZM435.306 93.168C435.18 95.544 435.432 103.716 428.25 107.694C428.97 108.198 429.672 108.846 430.05 109.404C433.848 107.082 435.738 103.608 436.71 100.368C437.718 103.68 439.734 107.388 443.802 109.404C444.144 108.828 444.792 108.09 445.458 107.586C438.744 104.436 437.844 96.678 437.7 94.194C437.718 93.816 437.736 93.456 437.754 93.168H435.306ZM462.666 105.408H459.426V104.562H462.666V105.408ZM459.426 102.15H462.666V102.924H459.426V102.15ZM454.422 98.568V97.704H457.248V98.568H454.422ZM462.342 97.704V98.568H459.426V97.704H462.342ZM466.716 102.924H464.844V100.71H459.426V99.918H464.538V96.354H459.426V95.616H466.302V93.924H459.426V92.754H457.248V93.924H450.534V95.616H457.248V96.354H452.37V99.918H457.248V100.71H451.92V102.15H457.248V102.924H450.12V104.562H457.248V105.408H451.776V106.956H457.248V107.514C457.248 107.838 457.14 107.946 456.798 107.964C456.51 107.964 455.448 107.964 454.584 107.928C454.854 108.378 455.178 109.116 455.286 109.62C456.816 109.62 457.788 109.584 458.472 109.314C459.174 109.008 459.426 108.576 459.426 107.514V106.956H462.666V107.694H464.844V104.562H466.716V102.924Z" fill="white"/>
<rect x="519" width="160" height="200" fill="#55CFEA"/>
<path d="M573.514 40.196C575.488 40.196 577.154 39.09 577.154 37.186C577.154 35.828 576.258 34.96 575.082 34.638V34.568C576.188 34.134 576.818 33.322 576.818 32.202C576.818 30.424 575.46 29.444 573.458 29.444C572.24 29.444 571.246 29.934 570.35 30.718L571.4 31.978C572.016 31.418 572.618 31.068 573.36 31.054C574.242 31.068 574.746 31.544 574.746 32.356C574.746 33.28 574.13 33.938 572.226 33.938V35.422C574.48 35.422 575.082 36.052 575.082 37.074C575.082 37.998 574.368 38.516 573.318 38.516C572.38 38.516 571.624 38.054 571.008 37.452L570.042 38.754C570.77 39.58 571.876 40.196 573.514 40.196ZM585.23 30.97C584.698 30.382 583.564 29.542 582.738 29.01L581.548 30.228C582.402 30.844 583.494 31.74 583.984 32.342L585.23 30.97ZM584.32 34.512C583.172 35.786 581.926 37.074 581.156 37.83L582.22 39.244C583.172 38.306 584.306 37.088 585.286 35.954L584.32 34.512ZM590.116 32.216H592.09C591.838 33.014 591.488 33.812 591.208 34.344C591.6 34.498 592.286 34.834 592.622 35.03C593.182 34.022 593.84 32.58 594.232 31.18L593 30.466L592.678 30.55H587.862C588.086 29.892 588.268 29.206 588.422 28.506L586.686 28.184C586.252 30.424 585.412 32.58 584.222 33.868C584.642 34.064 585.454 34.512 585.79 34.778C586.322 34.092 586.826 33.21 587.246 32.216H588.366V33.658C588.366 35.212 587.428 38.306 583.648 39.818C583.942 40.126 584.46 40.826 584.656 41.218C587.484 39.986 588.912 37.606 589.248 36.36C589.514 37.606 590.816 40.07 593.322 41.218C593.588 40.784 594.064 40.098 594.386 39.692C590.956 38.194 590.116 35.142 590.116 33.644V32.216ZM608.512 38.978H607V33.308H608.512V38.978ZM600.434 33.308H601.862V38.978H600.434V33.308ZM605.502 34.274H603.36V33.308H605.502V34.274ZM603.36 37.942H605.502V38.978H603.36V37.942ZM605.502 36.64H603.36V35.576H605.502V36.64ZM610.85 30.508V28.94H598.25V30.508H603.36C603.304 30.928 603.22 31.362 603.136 31.768H598.824V41.218H600.434V40.504H608.512V41.218H610.206V31.768H604.886C604.998 31.362 605.138 30.942 605.264 30.508H610.85ZM624.668 30.872C624.542 31.432 624.332 32.132 624.136 32.636H622.666L622.722 32.622C622.694 32.16 622.512 31.46 622.302 30.872H624.668ZM624.626 36.458C624.444 37.116 624.178 37.662 623.814 38.096C623.212 37.872 622.624 37.662 622.078 37.494C622.246 37.158 622.428 36.808 622.596 36.458H624.626ZM627.79 34.05V32.636H625.634C625.844 32.132 626.082 31.516 626.306 30.872H627.454V29.472H624.332V28.142H622.638V29.472H619.516V30.872H621.07L620.79 30.928C620.972 31.446 621.126 32.118 621.196 32.636H619.096V34.05H621.938C621.812 34.372 621.672 34.708 621.518 35.058H619.334L619.222 34.162L618.158 34.442V32.314H619.236V30.788H618.158V28.156H616.562V30.788H614.938V32.314H616.562V34.834C615.848 35.002 615.19 35.156 614.658 35.268L615.008 36.878L616.562 36.458V39.328C616.562 39.538 616.492 39.594 616.324 39.594C616.142 39.608 615.568 39.608 615.022 39.58C615.232 40.042 615.442 40.756 615.484 41.204C616.45 41.204 617.108 41.148 617.57 40.868C618.018 40.616 618.158 40.168 618.158 39.342V36.01C618.508 35.912 618.858 35.8 619.208 35.702V36.458H620.888C620.538 37.214 620.174 37.942 619.866 38.502L621.294 38.964L621.434 38.712C621.77 38.824 622.12 38.964 622.47 39.104C621.574 39.524 620.37 39.762 618.76 39.902C618.998 40.21 619.25 40.784 619.376 41.246C621.49 40.966 623.016 40.546 624.108 39.818C625.088 40.294 625.984 40.784 626.572 41.218L627.622 39.972C627.034 39.566 626.194 39.132 625.27 38.712C625.718 38.11 626.04 37.368 626.264 36.458H627.776V35.058H623.268C623.436 34.722 623.59 34.372 623.73 34.05H627.79Z" fill="white"/>
<path d="M557.006 91.174V83.83H560.804C561.326 83.83 561.956 83.866 562.496 83.902V81.436C561.974 81.49 561.344 81.544 560.804 81.544H551.012C550.508 81.544 549.77 81.508 549.302 81.436V83.902C549.752 83.866 550.526 83.83 551.012 83.83H554.486V91.174H549.914C549.356 91.174 548.708 91.138 548.15 91.03V93.64C548.744 93.568 549.374 93.55 549.914 93.55H561.776C562.19 93.55 562.946 93.568 563.45 93.64V91.03C563 91.102 562.424 91.174 561.776 91.174H557.006ZM572.738 80.32L571.046 82.12C572.36 83.038 574.61 85 575.546 86.008L577.382 84.118C576.338 83.038 573.998 81.166 572.738 80.32ZM570.488 92.308L572 94.684C574.538 94.252 576.86 93.244 578.678 92.146C581.576 90.4 583.97 87.916 585.338 85.486L583.934 82.948C582.8 85.378 580.442 88.132 577.382 89.95C575.636 90.994 573.296 91.912 570.488 92.308ZM603.122 80.176L601.628 80.806C602.276 81.724 602.69 82.498 603.212 83.632L604.778 82.966C604.364 82.138 603.644 80.932 603.122 80.176ZM605.606 79.312L604.076 79.942C604.742 80.842 605.192 81.544 605.768 82.678L607.298 81.994C606.866 81.202 606.164 80.032 605.606 79.312ZM595.31 79.834L594.014 81.814C595.202 82.48 597.074 83.686 598.082 84.388L599.414 82.408C598.478 81.76 596.498 80.482 595.31 79.834ZM591.98 92.614L593.33 94.972C594.914 94.684 597.506 93.784 599.342 92.758C602.276 91.048 604.832 88.78 606.488 86.278L605.102 83.83C603.68 86.404 601.16 88.87 598.1 90.58C596.156 91.66 593.996 92.272 591.98 92.614ZM592.538 83.938L591.242 85.918C592.448 86.566 594.32 87.772 595.346 88.492L596.66 86.476C595.742 85.828 593.762 84.586 592.538 83.938ZM613.148 93.334C613.814 93.28 614.696 93.226 615.398 93.226H625.73C626.27 93.226 627.08 93.262 627.71 93.334V90.58C627.098 90.652 626.342 90.706 625.73 90.706H615.398C614.696 90.706 613.85 90.634 613.148 90.58V93.334ZM614.66 84.388C615.272 84.352 616.1 84.316 616.784 84.316H624.218C624.848 84.316 625.694 84.37 626.216 84.388V81.778C625.712 81.832 624.938 81.886 624.218 81.886H616.766C616.154 81.886 615.308 81.85 614.66 81.778V84.388ZM640.436 84.244C640.526 84.82 640.562 85.306 640.562 85.864C640.562 88.816 640.13 90.724 637.844 92.308C637.178 92.794 636.53 93.1 635.954 93.298L638.042 95.008C642.956 92.38 643.046 88.708 643.046 84.244H640.436ZM648.95 80.482C648.626 80.59 647.636 80.644 647.132 80.644H637.43C636.674 80.644 635.918 80.572 635.234 80.464V82.966C636.08 82.894 636.674 82.84 637.43 82.84H646.808C646.34 83.722 644.936 85.306 643.496 86.188L645.35 87.682C647.132 86.422 648.842 84.154 649.688 82.75C649.85 82.48 650.192 82.048 650.39 81.814L648.95 80.482ZM585.464 110.74H578.516V110.074H583.916V108.778H578.516V108.13H584.726V106.726H578.516V105.754H576.32V106.726H570.362V108.13H576.32V108.778H571.19V110.074H576.32V110.74H569.336V112.216H585.464V110.74ZM573.566 117.886H581.378V118.642H573.566V117.886ZM573.566 115.978H581.378V116.698H573.566V115.978ZM573.566 114.07H581.378V114.79H573.566V114.07ZM583.556 119.884V112.846H571.496V119.884H573.854C572.594 120.388 570.83 120.82 569.21 121.09C569.66 121.45 570.416 122.206 570.758 122.62C572.594 122.17 574.88 121.36 576.374 120.478L575.06 119.884H579.83L578.39 120.676C580.19 121.27 581.99 122.026 582.998 122.566L585.572 121.612C584.438 121.126 582.602 120.442 580.91 119.884H583.556ZM607.316 115.294V113.224H602.816V108.832C604.274 108.562 605.66 108.22 606.884 107.806L605.318 106.006C603.086 106.816 599.54 107.5 596.3 107.914C596.534 107.428 596.732 106.96 596.93 106.474L594.806 105.808C593.816 108.472 592.106 111.082 590.306 112.738C590.684 113.278 591.35 114.466 591.566 114.988C592.07 114.502 592.538 113.944 593.024 113.332V122.548H595.166V110.128C595.58 109.426 595.958 108.706 596.282 107.968C596.516 108.472 596.804 109.228 596.894 109.75C598.1 109.606 599.378 109.444 600.638 109.228V113.224H595.76V115.294H600.638V119.902H596.48V121.954H607.136V119.902H602.816V115.294H607.316ZM620.438 109.552H623.372C622.76 110.128 622.112 110.668 621.428 111.19H620.438V109.552ZM624.362 117.418H618.17V116.266H624.362V117.418ZM618.17 120.262V119.038H624.362V120.262H618.17ZM628.664 113.08V111.19H624.488C625.802 109.984 627.008 108.652 628.034 107.23L626.198 106.294C625.64 107.086 625.028 107.842 624.344 108.58V107.698H620.438V105.754H618.314V107.698H614.084V109.552H618.314V111.19H612.536V113.08H618.656C616.586 114.304 614.318 115.33 611.96 116.068C612.374 116.5 613.004 117.364 613.274 117.832C614.192 117.49 615.128 117.094 616.028 116.698V122.584H618.17V122.044H624.362V122.512H626.594V114.52H620.06C620.798 114.052 621.482 113.584 622.184 113.08H628.664Z" fill="white"/>
<rect x="692" width="160" height="200" fill="#55CFEA"/>
<path d="M744.974 35.744L746.584 33.168C746.878 32.608 747.158 32.034 747.41 31.488H747.466C747.438 32.09 747.382 33.028 747.382 33.63V35.744H744.974ZM750.532 35.744H749.3V29.64H746.836L742.972 35.912V37.312H747.382V40H749.3V37.312H750.532V35.744ZM758.23 30.97C757.698 30.382 756.564 29.542 755.738 29.01L754.548 30.228C755.402 30.844 756.494 31.74 756.984 32.342L758.23 30.97ZM757.32 34.512C756.172 35.786 754.926 37.074 754.156 37.83L755.22 39.244C756.172 38.306 757.306 37.088 758.286 35.954L757.32 34.512ZM763.116 32.216H765.09C764.838 33.014 764.488 33.812 764.208 34.344C764.6 34.498 765.286 34.834 765.622 35.03C766.182 34.022 766.84 32.58 767.232 31.18L766 30.466L765.678 30.55H760.862C761.086 29.892 761.268 29.206 761.422 28.506L759.686 28.184C759.252 30.424 758.412 32.58 757.222 33.868C757.642 34.064 758.454 34.512 758.79 34.778C759.322 34.092 759.826 33.21 760.246 32.216H761.366V33.658C761.366 35.212 760.428 38.306 756.648 39.818C756.942 40.126 757.46 40.826 757.656 41.218C760.484 39.986 761.912 37.606 762.248 36.36C762.514 37.606 763.816 40.07 766.322 41.218C766.588 40.784 767.064 40.098 767.386 39.692C763.956 38.194 763.116 35.142 763.116 33.644V32.216ZM781.512 38.978H780V33.308H781.512V38.978ZM773.434 33.308H774.862V38.978H773.434V33.308ZM778.502 34.274H776.36V33.308H778.502V34.274ZM776.36 37.942H778.502V38.978H776.36V37.942ZM778.502 36.64H776.36V35.576H778.502V36.64ZM783.85 30.508V28.94H771.25V30.508H776.36C776.304 30.928 776.22 31.362 776.136 31.768H771.824V41.218H773.434V40.504H781.512V41.218H783.206V31.768H777.886C777.998 31.362 778.138 30.942 778.264 30.508H783.85ZM797.668 30.872C797.542 31.432 797.332 32.132 797.136 32.636H795.666L795.722 32.622C795.694 32.16 795.512 31.46 795.302 30.872H797.668ZM797.626 36.458C797.444 37.116 797.178 37.662 796.814 38.096C796.212 37.872 795.624 37.662 795.078 37.494C795.246 37.158 795.428 36.808 795.596 36.458H797.626ZM800.79 34.05V32.636H798.634C798.844 32.132 799.082 31.516 799.306 30.872H800.454V29.472H797.332V28.142H795.638V29.472H792.516V30.872H794.07L793.79 30.928C793.972 31.446 794.126 32.118 794.196 32.636H792.096V34.05H794.938C794.812 34.372 794.672 34.708 794.518 35.058H792.334L792.222 34.162L791.158 34.442V32.314H792.236V30.788H791.158V28.156H789.562V30.788H787.938V32.314H789.562V34.834C788.848 35.002 788.19 35.156 787.658 35.268L788.008 36.878L789.562 36.458V39.328C789.562 39.538 789.492 39.594 789.324 39.594C789.142 39.608 788.568 39.608 788.022 39.58C788.232 40.042 788.442 40.756 788.484 41.204C789.45 41.204 790.108 41.148 790.57 40.868C791.018 40.616 791.158 40.168 791.158 39.342V36.01C791.508 35.912 791.858 35.8 792.208 35.702V36.458H793.888C793.538 37.214 793.174 37.942 792.866 38.502L794.294 38.964L794.434 38.712C794.77 38.824 795.12 38.964 795.47 39.104C794.574 39.524 793.37 39.762 791.76 39.902C791.998 40.21 792.25 40.784 792.376 41.246C794.49 40.966 796.016 40.546 797.108 39.818C798.088 40.294 798.984 40.784 799.572 41.218L800.622 39.972C800.034 39.566 799.194 39.132 798.27 38.712C798.718 38.11 799.04 37.368 799.264 36.458H800.776V35.058H796.268C796.436 34.722 796.59 34.372 796.73 34.05H800.79Z" fill="white"/>
<path d="M746.008 78.88C743.812 79.528 740.158 80.014 736.954 80.23C737.17 80.68 737.44 81.454 737.512 81.94C740.788 81.76 744.658 81.328 747.43 80.554L746.008 78.88ZM745.468 86.566C746.206 85.504 747.142 83.83 747.916 82.3L745.882 81.562C745.432 82.93 744.514 84.766 743.812 85.9L745.468 86.566ZM743.272 85.144C743.236 84.244 742.876 82.912 742.444 81.868L740.662 82.21C741.058 83.29 741.364 84.658 741.382 85.522L743.272 85.144ZM740.122 85.684C739.96 84.766 739.438 83.362 738.898 82.318L737.206 82.75C737.71 83.866 738.16 85.306 738.304 86.206L740.122 85.684ZM736.612 86.296L735.154 86.71V84.118H736.792V82.156H735.154V78.772H733.21V82.156H731.32V84.118H733.21V87.232C732.4 87.43 731.644 87.628 731.032 87.754L731.5 89.806C732.022 89.662 732.616 89.5 733.21 89.32V93.298C733.21 93.532 733.12 93.604 732.904 93.604C732.688 93.622 732.058 93.622 731.41 93.586C731.662 94.162 731.896 95.044 731.95 95.566C733.138 95.584 733.894 95.512 734.452 95.17C734.992 94.828 735.154 94.288 735.154 93.298V88.744C735.73 88.582 736.306 88.402 736.882 88.222L736.612 86.296ZM747.772 89.554V87.7H743.434V85.882H741.418V87.7H737.188V89.554H740.284C739.276 91.03 737.674 92.38 736.036 93.118C736.504 93.514 737.116 94.288 737.458 94.792C738.934 93.964 740.356 92.614 741.418 91.084V95.44H743.434V91.174C744.406 92.596 745.63 93.892 746.872 94.702C747.196 94.198 747.808 93.46 748.276 93.082C746.836 92.326 745.396 90.976 744.46 89.554H747.772ZM762.46 88.294V86.08H766.258V88.294H762.46ZM756.862 88.294C756.898 87.628 756.916 86.98 756.916 86.404V86.08H760.3V88.294H756.862ZM760.3 81.994V84.082H756.916V81.994H760.3ZM766.258 84.082H762.46V81.994H766.258V84.082ZM768.382 79.96H754.792V86.386C754.792 88.906 754.63 92.11 752.668 94.27C753.154 94.522 754.018 95.26 754.36 95.656C755.656 94.252 756.304 92.272 756.628 90.31H760.3V95.332H762.46V90.31H766.258V93.01C766.258 93.334 766.132 93.442 765.79 93.442C765.466 93.442 764.278 93.46 763.27 93.406C763.54 93.964 763.882 94.882 763.954 95.458C765.574 95.476 766.672 95.44 767.41 95.08C768.13 94.756 768.382 94.18 768.382 93.028V79.96ZM781.306 79.168C781.18 81.544 781.432 89.716 774.25 93.694C774.97 94.198 775.672 94.846 776.05 95.404C779.848 93.082 781.738 89.608 782.71 86.368C783.718 89.68 785.734 93.388 789.802 95.404C790.144 94.828 790.792 94.09 791.458 93.586C784.744 90.436 783.844 82.678 783.7 80.194C783.718 79.816 783.736 79.456 783.754 79.168H781.306ZM808.666 91.408H805.426V90.562H808.666V91.408ZM805.426 88.15H808.666V88.924H805.426V88.15ZM800.422 84.568V83.704H803.248V84.568H800.422ZM808.342 83.704V84.568H805.426V83.704H808.342ZM812.716 88.924H810.844V86.71H805.426V85.918H810.538V82.354H805.426V81.616H812.302V79.924H805.426V78.754H803.248V79.924H796.534V81.616H803.248V82.354H798.37V85.918H803.248V86.71H797.92V88.15H803.248V88.924H796.12V90.562H803.248V91.408H797.776V92.956H803.248V93.514C803.248 93.838 803.14 93.946 802.798 93.964C802.51 93.964 801.448 93.964 800.584 93.928C800.854 94.378 801.178 95.116 801.286 95.62C802.816 95.62 803.788 95.584 804.472 95.314C805.174 95.008 805.426 94.576 805.426 93.514V92.956H808.666V93.694H810.844V90.562H812.716V88.924ZM758.464 110.74H751.516V110.074H756.916V108.778H751.516V108.13H757.726V106.726H751.516V105.754H749.32V106.726H743.362V108.13H749.32V108.778H744.19V110.074H749.32V110.74H742.336V112.216H758.464V110.74ZM746.566 117.886H754.378V118.642H746.566V117.886ZM746.566 115.978H754.378V116.698H746.566V115.978ZM746.566 114.07H754.378V114.79H746.566V114.07ZM756.556 119.884V112.846H744.496V119.884H746.854C745.594 120.388 743.83 120.82 742.21 121.09C742.66 121.45 743.416 122.206 743.758 122.62C745.594 122.17 747.88 121.36 749.374 120.478L748.06 119.884H752.83L751.39 120.676C753.19 121.27 754.99 122.026 755.998 122.566L758.572 121.612C757.438 121.126 755.602 120.442 753.91 119.884H756.556ZM780.316 115.294V113.224H775.816V108.832C777.274 108.562 778.66 108.22 779.884 107.806L778.318 106.006C776.086 106.816 772.54 107.5 769.3 107.914C769.534 107.428 769.732 106.96 769.93 106.474L767.806 105.808C766.816 108.472 765.106 111.082 763.306 112.738C763.684 113.278 764.35 114.466 764.566 114.988C765.07 114.502 765.538 113.944 766.024 113.332V122.548H768.166V110.128C768.58 109.426 768.958 108.706 769.282 107.968C769.516 108.472 769.804 109.228 769.894 109.75C771.1 109.606 772.378 109.444 773.638 109.228V113.224H768.76V115.294H773.638V119.902H769.48V121.954H780.136V119.902H775.816V115.294H780.316ZM793.438 109.552H796.372C795.76 110.128 795.112 110.668 794.428 111.19H793.438V109.552ZM797.362 117.418H791.17V116.266H797.362V117.418ZM791.17 120.262V119.038H797.362V120.262H791.17ZM801.664 113.08V111.19H797.488C798.802 109.984 800.008 108.652 801.034 107.23L799.198 106.294C798.64 107.086 798.028 107.842 797.344 108.58V107.698H793.438V105.754H791.314V107.698H787.084V109.552H791.314V111.19H785.536V113.08H791.656C789.586 114.304 787.318 115.33 784.96 116.068C785.374 116.5 786.004 117.364 786.274 117.832C787.192 117.49 788.128 117.094 789.028 116.698V122.584H791.17V122.044H797.362V122.512H799.594V114.52H793.06C793.798 114.052 794.482 113.584 795.184 113.08H801.664Z" fill="white"/>
<rect x="864" width="160" height="200" fill="#55CFEA"/>
<path d="M918.542 40.196C920.46 40.196 922.168 38.866 922.168 36.556C922.168 34.302 920.712 33.266 918.976 33.266C918.5 33.266 918.136 33.364 917.73 33.56L917.926 31.362H921.692V29.64H916.148L915.868 34.666L916.806 35.282C917.408 34.89 917.744 34.736 918.36 34.736C919.41 34.736 920.11 35.408 920.11 36.612C920.11 37.83 919.354 38.516 918.276 38.516C917.31 38.516 916.582 38.04 915.994 37.466L915.042 38.782C915.812 39.552 916.904 40.196 918.542 40.196ZM930.23 30.97C929.698 30.382 928.564 29.542 927.738 29.01L926.548 30.228C927.402 30.844 928.494 31.74 928.984 32.342L930.23 30.97ZM929.32 34.512C928.172 35.786 926.926 37.074 926.156 37.83L927.22 39.244C928.172 38.306 929.306 37.088 930.286 35.954L929.32 34.512ZM935.116 32.216H937.09C936.838 33.014 936.488 33.812 936.208 34.344C936.6 34.498 937.286 34.834 937.622 35.03C938.182 34.022 938.84 32.58 939.232 31.18L938 30.466L937.678 30.55H932.862C933.086 29.892 933.268 29.206 933.422 28.506L931.686 28.184C931.252 30.424 930.412 32.58 929.222 33.868C929.642 34.064 930.454 34.512 930.79 34.778C931.322 34.092 931.826 33.21 932.246 32.216H933.366V33.658C933.366 35.212 932.428 38.306 928.648 39.818C928.942 40.126 929.46 40.826 929.656 41.218C932.484 39.986 933.912 37.606 934.248 36.36C934.514 37.606 935.816 40.07 938.322 41.218C938.588 40.784 939.064 40.098 939.386 39.692C935.956 38.194 935.116 35.142 935.116 33.644V32.216ZM953.512 38.978H952V33.308H953.512V38.978ZM945.434 33.308H946.862V38.978H945.434V33.308ZM950.502 34.274H948.36V33.308H950.502V34.274ZM948.36 37.942H950.502V38.978H948.36V37.942ZM950.502 36.64H948.36V35.576H950.502V36.64ZM955.85 30.508V28.94H943.25V30.508H948.36C948.304 30.928 948.22 31.362 948.136 31.768H943.824V41.218H945.434V40.504H953.512V41.218H955.206V31.768H949.886C949.998 31.362 950.138 30.942 950.264 30.508H955.85ZM969.668 30.872C969.542 31.432 969.332 32.132 969.136 32.636H967.666L967.722 32.622C967.694 32.16 967.512 31.46 967.302 30.872H969.668ZM969.626 36.458C969.444 37.116 969.178 37.662 968.814 38.096C968.212 37.872 967.624 37.662 967.078 37.494C967.246 37.158 967.428 36.808 967.596 36.458H969.626ZM972.79 34.05V32.636H970.634C970.844 32.132 971.082 31.516 971.306 30.872H972.454V29.472H969.332V28.142H967.638V29.472H964.516V30.872H966.07L965.79 30.928C965.972 31.446 966.126 32.118 966.196 32.636H964.096V34.05H966.938C966.812 34.372 966.672 34.708 966.518 35.058H964.334L964.222 34.162L963.158 34.442V32.314H964.236V30.788H963.158V28.156H961.562V30.788H959.938V32.314H961.562V34.834C960.848 35.002 960.19 35.156 959.658 35.268L960.008 36.878L961.562 36.458V39.328C961.562 39.538 961.492 39.594 961.324 39.594C961.142 39.608 960.568 39.608 960.022 39.58C960.232 40.042 960.442 40.756 960.484 41.204C961.45 41.204 962.108 41.148 962.57 40.868C963.018 40.616 963.158 40.168 963.158 39.342V36.01C963.508 35.912 963.858 35.8 964.208 35.702V36.458H965.888C965.538 37.214 965.174 37.942 964.866 38.502L966.294 38.964L966.434 38.712C966.77 38.824 967.12 38.964 967.47 39.104C966.574 39.524 965.37 39.762 963.76 39.902C963.998 40.21 964.25 40.784 964.376 41.246C966.49 40.966 968.016 40.546 969.108 39.818C970.088 40.294 970.984 40.784 971.572 41.218L972.622 39.972C972.034 39.566 971.194 39.132 970.27 38.712C970.718 38.11 971.04 37.368 971.264 36.458H972.776V35.058H968.268C968.436 34.722 968.59 34.372 968.73 34.05H972.79Z" fill="white"/>
<path d="M934.298 95.256H936.62V97.362C936.62 98.55 936.782 98.946 937.124 99.288C937.448 99.612 937.988 99.756 938.474 99.756H939.554C939.896 99.756 940.364 99.684 940.634 99.54C940.976 99.36 941.192 99.126 941.318 98.766C941.462 98.406 941.552 97.578 941.588 96.822C941.084 96.642 940.364 96.3 939.986 95.976C939.968 96.642 939.95 97.218 939.914 97.47C939.878 97.722 939.806 97.83 939.734 97.866C939.68 97.902 939.554 97.92 939.464 97.92H939.086C938.978 97.92 938.888 97.902 938.834 97.848C938.78 97.776 938.78 97.614 938.78 97.29V93.384H932.264V95.238C932.264 96.462 932.066 98.028 930.446 99.162C930.914 99.396 931.85 100.008 932.21 100.368C933.974 99.036 934.298 96.948 934.298 95.292V95.256ZM928.538 92.772C927.764 93.978 926.162 95.454 924.74 96.336C925.082 96.786 925.568 97.668 925.802 98.136C927.512 97.038 929.366 95.256 930.554 93.582L928.538 92.772ZM929.096 96.534C928.016 98.316 926.216 100.116 924.56 101.25C924.92 101.718 925.496 102.834 925.694 103.302C926.216 102.906 926.738 102.438 927.278 101.916V109.548H929.348V99.648C929.96 98.892 930.536 98.1 931.004 97.326L929.096 96.534ZM937.61 102.42C937.124 103.338 936.476 104.148 935.72 104.868C934.964 104.148 934.352 103.338 933.902 102.42H937.61ZM939.086 100.404L938.69 100.494H931.022V102.42H933.56L931.958 102.906C932.534 104.13 933.236 105.192 934.1 106.11C932.876 106.884 931.508 107.46 930.032 107.82C930.428 108.252 930.95 109.062 931.202 109.62C932.84 109.134 934.37 108.45 935.72 107.55C937.016 108.486 938.582 109.188 940.436 109.62C940.742 109.044 941.318 108.18 941.804 107.712C940.13 107.406 938.654 106.866 937.43 106.146C938.798 104.832 939.86 103.158 940.526 101.052L939.086 100.404ZM958.472 96.156H951.2V94.986H958.472V96.156ZM960.758 93.312H949.04V97.812H960.758V93.312ZM950.354 104.202H959.174V104.994H950.354V104.202ZM950.354 102.06H959.174V102.834H950.354V102.06ZM950.354 99.936H959.174V100.71H950.354V99.936ZM961.388 106.452V98.478H948.23V106.452H951.02C949.796 107.064 947.96 107.694 946.412 108.036C946.898 108.45 947.636 109.116 948.032 109.566C949.85 109.116 952.154 108.252 953.612 107.406L952.244 106.452H957.122L955.628 107.514C957.536 108.072 960.02 108.954 961.406 109.602L963.296 108.09C962.054 107.604 960.218 106.956 958.544 106.452H961.388Z" fill="white"/>
<path fill-rule="evenodd" clip-rule="evenodd" d="M190 106L177 93L176.293 93.7071L188.586 106H142V107H190V106Z" fill="white"/>
<path fill-rule="evenodd" clip-rule="evenodd" d="M364 106L351 93L350.293 93.7071L362.586 106H316V107H364V106Z" fill="white"/>
<path fill-rule="evenodd" clip-rule="evenodd" d="M538 106L525 93L524.293 93.7071L536.586 106H490V107H538V106Z" fill="white"/>
<path fill-rule="evenodd" clip-rule="evenodd" d="M712 106L699 93L698.293 93.7071L710.586 106H664V107H712V106Z" fill="white"/>
<path fill-rule="evenodd" clip-rule="evenodd" d="M886 106L873 93L872.293 93.7071L884.586 106H838V107H886V106Z" fill="white"/>
<path d="M46.3039 230H52.5339V228.334H50.5879V219.64H49.0619C48.4039 220.046 47.6899 220.312 46.6539 220.508V221.782H48.5299V228.334H46.3039V230ZM60.064 230.196C61.982 230.196 63.69 228.866 63.69 226.556C63.69 224.302 62.234 223.266 60.498 223.266C60.022 223.266 59.658 223.364 59.252 223.56L59.448 221.362H63.214V219.64H57.67L57.39 224.666L58.328 225.282C58.93 224.89 59.266 224.736 59.882 224.736C60.932 224.736 61.632 225.408 61.632 226.612C61.632 227.83 60.876 228.516 59.798 228.516C58.832 228.516 58.104 228.04 57.516 227.466L56.564 228.782C57.334 229.552 58.426 230.196 60.064 230.196ZM71.0661 227.48C70.5481 227.48 69.9881 226.794 69.9881 225.394C69.9881 223.868 71.2061 221.852 73.5021 221.376C73.3341 222.524 73.0821 223.714 72.7601 224.736C72.2001 226.612 71.6401 227.48 71.0661 227.48ZM74.8741 230.574C78.3741 230.042 80.1661 227.97 80.1661 225.058C80.1661 222.034 77.9961 219.64 74.5661 219.64C70.9681 219.64 68.1821 222.384 68.1821 225.576C68.1821 227.914 69.4841 229.608 71.0101 229.608C72.5221 229.608 73.7261 227.9 74.5521 225.1C74.9441 223.798 75.1821 222.51 75.3781 221.334C77.2401 221.656 78.2761 223.084 78.2761 225.002C78.2761 227.018 76.9041 228.292 75.1261 228.712C74.7621 228.796 74.3701 228.866 73.8381 228.936L74.8741 230.574ZM89.7141 218.576H85.2621V219.836H89.7141V218.576ZM88.1741 227.564V229.174H86.5781V227.564H88.1741ZM89.6301 226.248H85.1361V231.022H86.5781V230.476H89.6301V226.248ZM85.1781 225.562H89.6721V224.316H85.1781V225.562ZM85.1781 223.672H89.6721V222.398H85.1781V223.672ZM84.5061 221.768H90.2321V220.452H84.5061V221.768ZM93.2701 229.524C92.6121 229.524 92.5001 229.426 92.5001 228.838V224.932H95.2301V225.618H96.8961V218.842H90.7781V220.424H95.2301V223.35H90.8061V228.838C90.8061 230.63 91.3521 231.092 93.0881 231.092H95.3981C96.9801 231.092 97.4281 230.42 97.6381 228.096C97.1901 227.998 96.4621 227.718 96.0981 227.452C96.0001 229.202 95.9021 229.524 95.2721 229.524H93.2701ZM104.078 218.926V220.62H107.27C107.312 221.096 107.368 221.6 107.466 222.132L106.612 221.978C105.842 225.66 104.176 228.362 101.264 229.832C101.698 230.154 102.482 230.84 102.79 231.19C105.226 229.734 106.906 227.41 107.956 224.274C108.726 226.78 110.21 229.426 113.108 231.176C113.402 230.742 114.088 230.014 114.452 229.72C109.3 226.682 108.922 221.572 108.922 218.926H104.078ZM17.7938 249.474H19.3198V246.492H22.1478V245.036H19.3198V242.054H17.7938V245.036H14.9658V246.492H17.7938V249.474ZM26.6259 251H32.8559V249.334H30.9099V240.64H29.3839C28.7259 241.046 28.0119 241.312 26.9759 241.508V242.782H28.8519V249.334H26.6259V251ZM40.3861 251.196C42.3041 251.196 44.0121 249.866 44.0121 247.556C44.0121 245.302 42.5561 244.266 40.8201 244.266C40.3441 244.266 39.9801 244.364 39.5741 244.56L39.7701 242.362H43.5361V240.64H37.9921L37.7121 245.666L38.6501 246.282C39.2521 245.89 39.5881 245.736 40.2041 245.736C41.2541 245.736 41.9541 246.408 41.9541 247.612C41.9541 248.83 41.1981 249.516 40.1201 249.516C39.1541 249.516 38.4261 249.04 37.8381 248.466L36.8861 249.782C37.6561 250.552 38.7481 251.196 40.3861 251.196ZM55.5462 239.954C56.3162 241.424 57.3662 242.964 58.4722 244.252H50.9122C52.0182 242.992 52.9982 241.452 53.6842 239.842L51.8922 239.324C51.0522 241.452 49.5122 243.384 47.7622 244.56C48.1682 244.854 48.8822 245.526 49.1902 245.904C49.5682 245.61 49.9462 245.274 50.3102 244.896V245.876H52.6762C52.3962 247.92 51.6682 249.754 48.5042 250.776C48.9102 251.154 49.4002 251.84 49.6102 252.316C53.2362 250.958 54.1462 248.564 54.4962 245.876H57.2542C57.1282 248.802 56.9742 250.048 56.6942 250.342C56.5402 250.51 56.3862 250.538 56.1342 250.538C55.7842 250.538 55.0562 250.524 54.2862 250.468C54.5802 250.944 54.8042 251.644 54.8322 252.148C55.6582 252.176 56.4702 252.176 56.9462 252.106C57.4922 252.036 57.8702 251.896 58.2202 251.448C58.7102 250.86 58.8782 249.208 59.0322 244.98V244.882C59.3402 245.204 59.6342 245.512 59.9282 245.778C60.2502 245.302 60.8942 244.63 61.3422 244.28C59.8162 243.104 58.0662 241.074 57.1842 239.296L55.5462 239.954ZM75.5942 242.992H72.3322V241.06H75.5942V242.992ZM77.2182 239.66H70.7922V244.392H77.2182V239.66ZM70.3862 246.856C70.1202 246.548 68.9722 245.33 68.5942 245.022V244.616H70.0922V243.062H68.5942V241.088C69.1962 240.934 69.7562 240.752 70.2602 240.556L69.1542 239.282C68.0762 239.772 66.3542 240.178 64.8142 240.444C64.9962 240.78 65.1922 241.34 65.2762 241.718C65.8222 241.648 66.3962 241.55 66.9842 241.438V243.062H64.9822V244.616H66.7602C66.2422 245.974 65.4722 247.458 64.6882 248.368C64.9542 248.788 65.3042 249.474 65.4582 249.95C66.0042 249.25 66.5362 248.256 66.9842 247.178V252.204H68.5942V246.744C68.9302 247.248 69.2662 247.794 69.4342 248.158L70.3862 246.856ZM74.7822 250.454V249.222H77.2602V247.822H74.7822V246.66H77.5962V245.232H70.3442V246.66H73.1302V247.822H70.6802V249.222H73.1302V250.454H69.7982V251.91H77.8902V250.454H74.7822ZM84.3442 241.886H94.4382V240.402H89.4682V239.156H87.7322V240.402H82.7482V244.322C82.7482 246.366 82.6642 249.278 81.5022 251.266C81.8802 251.434 82.5802 251.896 82.8602 252.176C84.1342 250.02 84.3442 246.59 84.3442 244.322V241.886ZM90.7002 244.378V245.302H88.1522V244.378H90.7002ZM92.3522 246.562V244.378H94.3682V243.062H92.3522V242.138H90.7002V243.062H88.1522V242.138H86.5842V243.062H84.6942V244.378H86.5842V246.562H92.3522ZM91.2182 248.424C90.7562 248.872 90.1822 249.264 89.5382 249.572C88.8802 249.25 88.3202 248.872 87.9002 248.424H91.2182ZM92.6322 247.052L92.3382 247.122H84.7922V248.424H86.8782L86.2202 248.662C86.6682 249.264 87.2142 249.782 87.8302 250.216C86.7242 250.538 85.4922 250.734 84.2042 250.846C84.4562 251.196 84.7502 251.826 84.8762 252.246C86.5422 252.036 88.1102 251.7 89.4822 251.154C90.7002 251.7 92.1282 252.064 93.7382 252.26C93.9482 251.826 94.3822 251.182 94.7182 250.832C93.4582 250.72 92.2962 250.524 91.2742 250.23C92.2822 249.558 93.1082 248.69 93.6682 247.57L92.6322 247.052ZM101.788 248.48C101.27 248.48 100.71 247.794 100.71 246.394C100.71 244.868 101.928 242.852 104.224 242.376C104.056 243.524 103.804 244.714 103.482 245.736C102.922 247.612 102.362 248.48 101.788 248.48ZM105.596 251.574C109.096 251.042 110.888 248.97 110.888 246.058C110.888 243.034 108.718 240.64 105.288 240.64C101.69 240.64 98.9042 243.384 98.9042 246.576C98.9042 248.914 100.206 250.608 101.732 250.608C103.244 250.608 104.448 248.9 105.274 246.1C105.666 244.798 105.904 243.51 106.1 242.334C107.962 242.656 108.998 244.084 108.998 246.002C108.998 248.018 107.626 249.292 105.848 249.712C105.484 249.796 105.092 249.866 104.56 249.936L105.596 251.574ZM120.17 239.576H115.942V240.836H120.17V239.576ZM120.702 241.452H115.228V242.768H120.702V241.452ZM120.198 245.316H115.886V246.562H120.198V245.316ZM125.546 246.646C125.21 247.36 124.776 247.99 124.23 248.536C123.67 247.976 123.208 247.346 122.872 246.646H125.546ZM118.742 250.174H117.258V248.564H118.742V250.174ZM126.596 245.078L126.316 245.148H121.388C122.844 244.154 123.124 242.558 123.124 241.242V241.004H124.692V242.698C124.692 244.084 125.014 244.518 126.134 244.518H126.946C127.884 244.518 128.248 244.028 128.388 242.292C127.982 242.18 127.338 241.942 127.03 241.704C127.016 242.922 126.96 243.104 126.778 243.104H126.428C126.274 243.104 126.246 243.062 126.246 242.67V239.534H121.556V241.2C121.556 242.138 121.402 243.244 120.198 244.07V243.398H115.886V244.672H120.198V244.14C120.534 244.364 121.122 244.868 121.36 245.148H120.884V246.646H122.83L121.402 247.108C121.836 248.018 122.368 248.83 123.012 249.53C122.186 250.076 121.234 250.468 120.184 250.734V247.248H115.844V252.022H117.258V251.476H120.184V250.762C120.492 251.14 120.884 251.798 121.052 252.204C122.242 251.84 123.32 251.336 124.258 250.678C125.14 251.336 126.162 251.854 127.338 252.204C127.576 251.77 128.052 251.112 128.416 250.762C127.338 250.496 126.358 250.09 125.532 249.558C126.498 248.508 127.24 247.178 127.688 245.484L126.596 245.078ZM136.508 240.948V241.704H134.366V240.948H136.508ZM134.366 243.622V242.824H136.508V243.622H134.366ZM138.062 244.882V239.674H132.714V252.218H134.366V244.882H138.062ZM139.672 247.22V248.872H137.362V247.22H139.672ZM141.226 250.244V245.848H135.808V251.028H137.362V250.244H141.226ZM140.61 243.636V242.824H142.822V243.636H140.61ZM142.822 240.934V241.704H140.61V240.934H142.822ZM144.516 239.674H139.028V244.896H142.822V250.202C142.822 250.454 142.724 250.538 142.458 250.538C142.192 250.552 141.24 250.566 140.428 250.51C140.666 250.958 140.932 251.742 140.988 252.218C142.276 252.218 143.158 252.176 143.732 251.896C144.32 251.63 144.516 251.154 144.516 250.23V239.674Z" fill="black"/>
<path d="M192.87 231.576H188.418V232.836H192.87V231.576ZM191.33 240.564V242.174H189.734V240.564H191.33ZM192.786 239.248H188.292V244.022H189.734V243.476H192.786V239.248ZM188.334 238.562H192.828V237.316H188.334V238.562ZM188.334 236.672H192.828V235.398H188.334V236.672ZM187.662 234.768H193.388V233.452H187.662V234.768ZM196.426 242.524C195.768 242.524 195.656 242.426 195.656 241.838V237.932H198.386V238.618H200.052V231.842H193.934V233.424H198.386V236.35H193.962V241.838C193.962 243.63 194.508 244.092 196.244 244.092H198.554C200.136 244.092 200.584 243.42 200.794 241.096C200.346 240.998 199.618 240.718 199.254 240.452C199.156 242.202 199.058 242.524 198.428 242.524H196.426ZM211.994 241.838H213.674V235.104H217.258V233.564H215.844L216.978 232.836C216.67 232.346 215.984 231.632 215.438 231.156L214.164 231.912C214.668 232.402 215.242 233.06 215.55 233.564H213.674V231.268H211.994V233.564H208.508V235.104H211.994V241.838ZM214.248 236.238C214.934 237.638 215.606 239.472 215.802 240.606L217.37 240.032C217.146 238.884 216.404 237.106 215.69 235.748L214.248 236.238ZM209.726 235.888C209.432 237.4 208.872 238.968 208.116 239.934C208.522 240.116 209.25 240.522 209.586 240.76C210.328 239.668 210.986 237.946 211.364 236.196L209.726 235.888ZM208.242 233.578C207.766 232.92 206.744 232.052 205.904 231.464L204.672 232.472C205.498 233.088 206.492 234.012 206.926 234.684L208.242 233.578ZM207.892 236.574H204.658V238.1H206.268V241.054C205.652 241.53 204.952 241.992 204.364 242.342L205.176 244.078C205.932 243.49 206.548 242.944 207.164 242.398C208.074 243.49 209.222 243.882 210.944 243.952C212.61 244.022 215.424 243.994 217.104 243.91C217.188 243.434 217.44 242.622 217.622 242.23C215.76 242.37 212.61 242.412 210.972 242.342C209.516 242.286 208.466 241.908 207.892 240.97V236.574ZM229.522 240.984C229.508 240.354 229.48 239.332 229.466 238.562C230.32 238.17 231.104 237.862 231.72 237.624C232.196 237.428 232.924 237.148 233.372 237.036L232.672 235.426C232.168 235.664 231.678 235.902 231.146 236.14C230.572 236.392 229.984 236.63 229.27 236.966C228.962 236.252 228.262 235.888 227.422 235.888C226.96 235.888 226.218 235.986 225.854 236.168C226.148 235.762 226.428 235.258 226.652 234.768C228.136 234.712 229.844 234.6 231.174 234.404L231.188 232.78C229.97 233.004 228.57 233.116 227.268 233.186C227.436 232.626 227.534 232.15 227.604 231.814L225.784 231.66C225.77 232.052 225.672 232.612 225.504 233.242H224.832C224.132 233.242 223.096 233.2 222.396 233.088V234.712C223.152 234.782 224.174 234.81 224.734 234.81H224.902C224.286 236.042 223.306 237.274 221.85 238.618L223.334 239.724C223.81 239.122 224.202 238.618 224.622 238.198C225.154 237.694 226.008 237.246 226.792 237.246C227.17 237.246 227.534 237.372 227.758 237.722C226.176 238.534 224.496 239.654 224.496 241.418C224.496 243.21 226.134 243.728 228.304 243.728C229.606 243.728 231.3 243.616 232.224 243.504L232.28 241.698C231.062 241.95 229.522 242.104 228.346 242.104C226.988 242.104 226.33 241.894 226.33 241.124C226.33 240.438 226.89 239.892 227.912 239.332C227.898 239.934 227.884 240.578 227.856 240.984H229.522ZM245.454 238.212V235.202H248.618V238.212H245.454ZM240.54 238.212V235.202H243.69V238.212H240.54ZM245.454 233.564V231.142H243.69V233.564H238.86V240.62H240.54V239.85H243.69V244.218H245.454V239.85H248.618V240.55H250.368V233.564H245.454ZM264.102 236.336C265.208 237.876 266.188 240.018 266.468 241.446L268.162 240.606C267.812 239.15 266.818 237.106 265.628 235.566L264.102 236.336ZM256.08 236.126C255.898 237.988 255.492 239.794 254.666 240.998L256.22 241.894C257.144 240.522 257.508 238.38 257.718 236.462L256.08 236.126ZM258.642 232.486C260.28 233.116 262.226 234.194 263.304 235.09L264.396 233.62C263.29 232.808 261.358 231.772 259.706 231.184L258.642 232.486ZM258.586 235.132V241.782C258.586 243.532 259.076 244.078 260.854 244.078H263.136C264.816 244.078 265.264 243.252 265.446 240.648C264.984 240.522 264.284 240.228 263.892 239.92C263.794 242.118 263.682 242.552 262.996 242.552H261.078C260.42 242.552 260.322 242.454 260.322 241.782V235.132H258.586ZM277.472 233.228L277.486 235.02C279.222 235.174 281.728 235.174 283.436 235.02V233.228C281.938 233.41 279.18 233.466 277.472 233.228ZM276.996 239.01C276.856 239.654 276.758 240.242 276.758 240.816C276.758 242.23 277.892 243.098 280.286 243.098C281.854 243.098 282.974 242.986 283.87 242.818L283.828 240.942C282.624 241.194 281.602 241.306 280.356 241.306C278.956 241.306 278.424 240.942 278.424 240.326C278.424 239.948 278.48 239.612 278.592 239.164L276.996 239.01ZM273.398 232.15C273.398 232.584 273.314 233.116 273.258 233.508C273.104 234.572 272.684 236.91 272.684 238.996C272.684 240.872 272.95 242.566 273.23 243.532L274.826 243.42C274.812 243.224 274.812 243 274.798 242.846C274.798 242.706 274.84 242.398 274.882 242.202C275.022 241.46 275.484 239.962 275.876 238.8L275.008 238.128C274.812 238.576 274.588 239.038 274.392 239.528C274.35 239.234 274.336 238.898 274.336 238.632C274.336 237.246 274.812 234.474 275.008 233.55C275.064 233.298 275.232 232.598 275.344 232.318L273.398 232.15ZM291.906 241.754C291.542 241.754 290.898 241.362 290.898 240.942C290.898 240.452 291.458 239.878 292.312 239.444C292.34 240.172 292.354 240.802 292.354 241.152C292.354 241.628 292.158 241.754 291.906 241.754ZM293.88 236.77C293.88 236.364 293.88 235.944 293.894 235.524C294.804 235.412 295.756 235.272 296.54 235.09L296.498 233.354C295.77 233.564 294.86 233.746 293.95 233.872C293.964 233.522 293.978 233.186 293.992 232.878C294.02 232.528 294.076 231.926 294.104 231.674H292.2C292.242 231.926 292.298 232.598 292.298 232.892C292.298 233.13 292.298 233.536 292.284 234.026C292.004 234.04 291.738 234.054 291.486 234.054C290.982 234.054 290.38 234.04 289.568 233.942L289.596 235.622C290.198 235.678 290.898 235.692 291.528 235.692C291.752 235.692 292.004 235.678 292.27 235.664V236.826C292.27 237.148 292.27 237.47 292.284 237.792C290.59 238.534 289.176 239.78 289.176 240.998C289.176 242.468 291.094 243.63 292.452 243.63C293.348 243.63 293.978 243.182 293.978 241.46C293.978 240.984 293.936 239.92 293.908 238.814C294.762 238.576 295.658 238.436 296.512 238.436C297.716 238.436 298.556 238.982 298.556 239.92C298.556 240.928 297.66 241.502 296.54 241.698C296.05 241.782 295.462 241.796 294.832 241.796L295.476 243.574C296.022 243.546 296.652 243.49 297.296 243.35C299.494 242.804 300.348 241.572 300.348 239.934C300.348 238.03 298.668 236.896 296.54 236.896C295.77 236.896 294.818 237.022 293.88 237.26V236.77ZM297.296 234.53C298.164 234.95 299.97 235.972 300.628 236.546L301.468 235.118C300.74 234.6 299.13 233.69 298.066 233.172L297.296 234.53ZM310.134 231.576H306.004V232.836H310.134V231.576ZM308.776 240.746V242.342H307.278V240.746H308.776ZM310.19 239.43H305.878V244.204H307.278V243.658H310.19V239.43ZM305.92 238.716H310.12V237.456H305.92V238.716ZM310.12 235.51H305.92V236.756H310.12V235.51ZM305.262 234.824H310.582V233.508H305.262V234.824ZM316.168 242.048H312.99V240.088H316.168V242.048ZM318.394 236.742V235.188H315.384V233.242C316.336 233.088 317.232 232.906 318.03 232.668L316.854 231.282C315.37 231.758 313.018 232.122 310.918 232.304C311.1 232.668 311.31 233.298 311.366 233.704C312.108 233.648 312.906 233.578 313.69 233.48V235.188H310.68V236.742H313.69V238.59H311.408V244.218H312.99V243.546H316.168V244.162H317.834V238.59H315.384V236.742H318.394Z" fill="black"/>
<path d="M384.21 219.78H387.304V220.648H385.05V222.832H384.21V219.78ZM387.304 222.832H386.212V221.684H387.304V222.832ZM386.338 226.696H385.078V225.73H386.338V226.696ZM383.174 224.092H388.312V227.494C388.312 227.634 388.27 227.676 388.116 227.676C388.032 227.676 387.808 227.676 387.542 227.676V224.666H383.888V228.18H385.078V227.76H387.192C387.346 228.11 387.486 228.6 387.528 228.964C388.298 228.964 388.858 228.95 389.278 228.74C389.712 228.516 389.824 228.152 389.824 227.508V222.832H388.802V218.548H382.768V222.832H381.732V228.922H383.174V224.092ZM381.102 220.718C380.654 220.046 379.688 219.122 378.904 218.492L377.63 219.444C378.414 220.116 379.338 221.082 379.73 221.768L381.102 220.718ZM380.724 223.574H377.574V225.1H379.142V228.152C378.582 228.628 377.952 229.09 377.406 229.44L378.19 231.092C378.904 230.49 379.478 229.958 380.038 229.412C380.878 230.49 381.998 230.896 383.664 230.966C385.372 231.036 388.34 231.008 390.076 230.924C390.16 230.462 390.398 229.692 390.594 229.3C388.662 229.454 385.358 229.496 383.678 229.426C382.25 229.37 381.27 228.978 380.724 228.04V223.574ZM407.184 225.324V223.644H401.612V221.656H406.176V219.99H401.612V218.142H399.862V219.99H395.536V221.656H399.862V223.644H394.472V225.324H398.448C398.07 226.514 397.524 227.872 396.992 228.936L394.99 229.02L395.228 230.784C397.762 230.658 401.416 230.448 404.888 230.21C405.126 230.63 405.336 231.022 405.476 231.358L407.142 230.49C406.54 229.23 405.28 227.41 404.076 226.038L402.494 226.738C402.942 227.298 403.418 227.928 403.866 228.586C402.186 228.67 400.478 228.768 398.91 228.838C399.47 227.788 400.072 226.514 400.576 225.324H407.184ZM414.422 227.48C413.904 227.48 413.344 226.794 413.344 225.394C413.344 223.868 414.562 221.852 416.858 221.376C416.69 222.524 416.438 223.714 416.116 224.736C415.556 226.612 414.996 227.48 414.422 227.48ZM418.23 230.574C421.73 230.042 423.522 227.97 423.522 225.058C423.522 222.034 421.352 219.64 417.922 219.64C414.324 219.64 411.538 222.384 411.538 225.576C411.538 227.914 412.84 229.608 414.366 229.608C415.878 229.608 417.082 227.9 417.908 225.1C418.3 223.798 418.538 222.51 418.734 221.334C420.596 221.656 421.632 223.084 421.632 225.002C421.632 227.018 420.26 228.292 418.482 228.712C418.118 228.796 417.726 228.866 417.194 228.936L418.23 230.574ZM428.394 226.332C428.282 227.508 428.058 228.754 427.652 229.58C428.016 229.706 428.632 230 428.926 230.182C429.332 229.286 429.626 227.886 429.766 226.57L428.394 226.332ZM431.432 226.584C431.754 227.41 432.118 228.488 432.244 229.188L433.476 228.74C433.322 228.04 432.958 227.018 432.608 226.22L431.432 226.584ZM437.844 227.732H440.336V226.262H437.844V224.596H436.206V226.262H433.826V227.732H436.206V229.37H433V230.826H440.91V229.37H437.844V227.732ZM438.278 220.214C437.914 220.83 437.452 221.39 436.906 221.88C436.36 221.39 435.898 220.83 435.562 220.214H438.278ZM439.412 218.716L439.118 218.786H433.322V220.214H434.918L434.022 220.508C434.47 221.376 435.016 222.132 435.674 222.79C434.834 223.294 433.896 223.686 432.888 223.952C432.692 223.504 432.468 223.056 432.244 222.664L431.138 223.126C431.306 223.434 431.474 223.784 431.628 224.134L430.284 224.19C431.166 223.056 432.132 221.642 432.902 220.424L431.544 219.794C431.222 220.48 430.774 221.278 430.298 222.062C430.158 221.894 430.004 221.698 429.822 221.502C430.326 220.718 430.886 219.64 431.39 218.688L429.948 218.156C429.71 218.898 429.318 219.822 428.926 220.592C428.814 220.494 428.702 220.396 428.604 220.312L427.806 221.446C428.38 222.006 429.052 222.748 429.458 223.35C429.234 223.672 429.01 223.98 428.8 224.246L427.792 224.288L427.932 225.73L429.962 225.604V231.232H431.404V225.506L432.118 225.45C432.202 225.716 432.258 225.954 432.3 226.164L433.476 225.632C433.392 225.184 433.168 224.582 432.902 223.98C433.224 224.33 433.602 224.946 433.784 225.324C434.946 224.96 436.024 224.484 436.976 223.854C437.872 224.47 438.922 224.932 440.098 225.254C440.322 224.862 440.77 224.232 441.12 223.91C440.056 223.686 439.09 223.322 438.25 222.846C439.244 221.894 440.028 220.704 440.532 219.22L439.412 218.716ZM445.138 226.332C445.026 227.508 444.83 228.754 444.424 229.58C444.76 229.706 445.362 229.972 445.642 230.168C446.034 229.272 446.342 227.886 446.468 226.556L445.138 226.332ZM448.792 225.366C448.876 225.674 448.96 225.954 449.002 226.192L450.248 225.618C450.08 224.834 449.548 223.602 449.002 222.65L447.826 223.14C447.98 223.42 448.134 223.728 448.274 224.036L447.056 224.106C447.938 222.986 448.89 221.6 449.66 220.424L448.302 219.794C447.98 220.48 447.532 221.278 447.042 222.062C446.916 221.894 446.762 221.698 446.594 221.516C447.112 220.732 447.686 219.626 448.176 218.66L446.734 218.156C446.51 218.87 446.118 219.808 445.726 220.578C445.614 220.48 445.502 220.382 445.404 220.284L444.592 221.404C445.152 221.978 445.796 222.734 446.188 223.364C445.978 223.658 445.768 223.938 445.558 224.19L444.55 224.246L444.718 225.688L446.664 225.534V231.218H448.092V225.422L448.792 225.366ZM452.376 228.544V227.648H453.58V228.544H452.376ZM452.068 223.84H455.344V224.68H452.068V223.84ZM455.176 227.648H457.332V226.444H455.176V225.828H456.94V222.72H450.57V225.828H453.58V226.444H450.248V227.648H450.892V228.544H450.066C449.954 227.886 449.674 226.976 449.38 226.276L448.218 226.626C448.512 227.41 448.778 228.418 448.848 229.09L449.744 228.796V229.818H453.58V231.218H455.176V229.818H457.556V228.544H455.176V227.648ZM455.036 220.2V220.97H453.342C453.398 220.732 453.44 220.466 453.496 220.2H455.036ZM456.604 220.97V218.996H453.706L453.832 218.254L452.18 218.128C452.152 218.408 452.11 218.702 452.068 218.996H450.388V220.2H451.872C451.83 220.466 451.774 220.718 451.732 220.97H449.66V222.244H457.654V220.97H456.604ZM469.722 227.984C469.708 227.354 469.68 226.332 469.666 225.562C470.52 225.17 471.304 224.862 471.92 224.624C472.396 224.428 473.124 224.148 473.572 224.036L472.872 222.426C472.368 222.664 471.878 222.902 471.346 223.14C470.772 223.392 470.184 223.63 469.47 223.966C469.162 223.252 468.462 222.888 467.622 222.888C467.16 222.888 466.418 222.986 466.054 223.168C466.348 222.762 466.628 222.258 466.852 221.768C468.336 221.712 470.044 221.6 471.374 221.404L471.388 219.78C470.17 220.004 468.77 220.116 467.468 220.186C467.636 219.626 467.734 219.15 467.804 218.814L465.984 218.66C465.97 219.052 465.872 219.612 465.704 220.242H465.032C464.332 220.242 463.296 220.2 462.596 220.088V221.712C463.352 221.782 464.374 221.81 464.934 221.81H465.102C464.486 223.042 463.506 224.274 462.05 225.618L463.534 226.724C464.01 226.122 464.402 225.618 464.822 225.198C465.354 224.694 466.208 224.246 466.992 224.246C467.37 224.246 467.734 224.372 467.958 224.722C466.376 225.534 464.696 226.654 464.696 228.418C464.696 230.21 466.334 230.728 468.504 230.728C469.806 230.728 471.5 230.616 472.424 230.504L472.48 228.698C471.262 228.95 469.722 229.104 468.546 229.104C467.188 229.104 466.53 228.894 466.53 228.124C466.53 227.438 467.09 226.892 468.112 226.332C468.098 226.934 468.084 227.578 468.056 227.984H469.722ZM393.254 246.212V243.202H396.418V246.212H393.254ZM388.34 246.212V243.202H391.49V246.212H388.34ZM393.254 241.564V239.142H391.49V241.564H386.66V248.62H388.34V247.85H391.49V252.218H393.254V247.85H396.418V248.55H398.168V241.564H393.254ZM411.902 244.336C413.008 245.876 413.988 248.018 414.268 249.446L415.962 248.606C415.612 247.15 414.618 245.106 413.428 243.566L411.902 244.336ZM403.88 244.126C403.698 245.988 403.292 247.794 402.466 248.998L404.02 249.894C404.944 248.522 405.308 246.38 405.518 244.462L403.88 244.126ZM406.442 240.486C408.08 241.116 410.026 242.194 411.104 243.09L412.196 241.62C411.09 240.808 409.158 239.772 407.506 239.184L406.442 240.486ZM406.386 243.132V249.782C406.386 251.532 406.876 252.078 408.654 252.078H410.936C412.616 252.078 413.064 251.252 413.246 248.648C412.784 248.522 412.084 248.228 411.692 247.92C411.594 250.118 411.482 250.552 410.796 250.552H408.878C408.22 250.552 408.122 250.454 408.122 249.782V243.132H406.386ZM425.272 241.228L425.286 243.02C427.022 243.174 429.528 243.174 431.236 243.02V241.228C429.738 241.41 426.98 241.466 425.272 241.228ZM424.796 247.01C424.656 247.654 424.558 248.242 424.558 248.816C424.558 250.23 425.692 251.098 428.086 251.098C429.654 251.098 430.774 250.986 431.67 250.818L431.628 248.942C430.424 249.194 429.402 249.306 428.156 249.306C426.756 249.306 426.224 248.942 426.224 248.326C426.224 247.948 426.28 247.612 426.392 247.164L424.796 247.01ZM421.198 240.15C421.198 240.584 421.114 241.116 421.058 241.508C420.904 242.572 420.484 244.91 420.484 246.996C420.484 248.872 420.75 250.566 421.03 251.532L422.626 251.42C422.612 251.224 422.612 251 422.598 250.846C422.598 250.706 422.64 250.398 422.682 250.202C422.822 249.46 423.284 247.962 423.676 246.8L422.808 246.128C422.612 246.576 422.388 247.038 422.192 247.528C422.15 247.234 422.136 246.898 422.136 246.632C422.136 245.246 422.612 242.474 422.808 241.55C422.864 241.298 423.032 240.598 423.144 240.318L421.198 240.15ZM439.706 249.754C439.342 249.754 438.698 249.362 438.698 248.942C438.698 248.452 439.258 247.878 440.112 247.444C440.14 248.172 440.154 248.802 440.154 249.152C440.154 249.628 439.958 249.754 439.706 249.754ZM441.68 244.77C441.68 244.364 441.68 243.944 441.694 243.524C442.604 243.412 443.556 243.272 444.34 243.09L444.298 241.354C443.57 241.564 442.66 241.746 441.75 241.872C441.764 241.522 441.778 241.186 441.792 240.878C441.82 240.528 441.876 239.926 441.904 239.674H440C440.042 239.926 440.098 240.598 440.098 240.892C440.098 241.13 440.098 241.536 440.084 242.026C439.804 242.04 439.538 242.054 439.286 242.054C438.782 242.054 438.18 242.04 437.368 241.942L437.396 243.622C437.998 243.678 438.698 243.692 439.328 243.692C439.552 243.692 439.804 243.678 440.07 243.664V244.826C440.07 245.148 440.07 245.47 440.084 245.792C438.39 246.534 436.976 247.78 436.976 248.998C436.976 250.468 438.894 251.63 440.252 251.63C441.148 251.63 441.778 251.182 441.778 249.46C441.778 248.984 441.736 247.92 441.708 246.814C442.562 246.576 443.458 246.436 444.312 246.436C445.516 246.436 446.356 246.982 446.356 247.92C446.356 248.928 445.46 249.502 444.34 249.698C443.85 249.782 443.262 249.796 442.632 249.796L443.276 251.574C443.822 251.546 444.452 251.49 445.096 251.35C447.294 250.804 448.148 249.572 448.148 247.934C448.148 246.03 446.468 244.896 444.34 244.896C443.57 244.896 442.618 245.022 441.68 245.26V244.77ZM445.096 242.53C445.964 242.95 447.77 243.972 448.428 244.546L449.268 243.118C448.54 242.6 446.93 241.69 445.866 241.172L445.096 242.53ZM457.934 239.576H453.804V240.836H457.934V239.576ZM456.576 248.746V250.342H455.078V248.746H456.576ZM457.99 247.43H453.678V252.204H455.078V251.658H457.99V247.43ZM453.72 246.716H457.92V245.456H453.72V246.716ZM457.92 243.51H453.72V244.756H457.92V243.51ZM453.062 242.824H458.382V241.508H453.062V242.824ZM463.968 250.048H460.79V248.088H463.968V250.048ZM466.194 244.742V243.188H463.184V241.242C464.136 241.088 465.032 240.906 465.83 240.668L464.654 239.282C463.17 239.758 460.818 240.122 458.718 240.304C458.9 240.668 459.11 241.298 459.166 241.704C459.908 241.648 460.706 241.578 461.49 241.48V243.188H458.48V244.742H461.49V246.59H459.208V252.218H460.79V251.546H463.968V252.162H465.634V246.59H463.184V244.742H466.194Z" fill="black"/>
<path d="M601.85 238.092L600.562 238.414V236.342H601.934V234.802H600.562V232.142H598.91V234.802H597.3V236.342H598.91V238.82C598.238 238.988 597.636 239.128 597.118 239.226L597.552 240.808L598.91 240.472V243.356C598.91 243.566 598.854 243.636 598.644 243.636C598.462 243.636 597.888 243.636 597.342 243.622C597.538 244.056 597.748 244.714 597.818 245.134C598.798 245.134 599.47 245.092 599.932 244.84C600.408 244.574 600.562 244.182 600.562 243.37V240.024C601.066 239.898 601.57 239.758 602.06 239.618L601.85 238.092ZM607.702 238.848C607.282 239.8 606.68 240.626 605.952 241.326C605.252 240.612 604.692 239.772 604.3 238.848H607.702ZM608.752 237.28L608.458 237.35H606.778V235.67H609.914V234.13H606.778V232.128H605.126V234.13H602.116V235.67H605.126V237.35H602.368V238.848H603.096L602.676 238.974C603.18 240.262 603.838 241.368 604.664 242.306C603.684 242.936 602.55 243.384 601.318 243.678C601.626 244.042 602.032 244.742 602.214 245.19C603.572 244.784 604.804 244.224 605.896 243.468C606.862 244.252 608.024 244.826 609.382 245.232C609.62 244.798 610.096 244.126 610.446 243.79C609.2 243.482 608.122 243.02 607.212 242.376C608.388 241.2 609.284 239.674 609.816 237.728L608.752 237.28ZM626.826 232.898H623.508V234.354H626.826V232.898ZM623.368 234.41C623.2 233.892 622.78 233.108 622.416 232.506L621.31 232.968C621.674 233.584 622.066 234.41 622.234 234.928L623.368 234.41ZM616.228 232.156C615.738 233.038 614.772 234.144 613.876 234.83C614.128 235.11 614.534 235.726 614.73 236.076C615.808 235.222 616.984 233.906 617.726 232.688L616.228 232.156ZM617.95 237.98C617.866 239.702 617.684 241.452 617.18 242.572C617.488 242.754 618.062 243.146 618.3 243.342C618.846 242.068 619.14 240.122 619.28 238.176L617.95 237.98ZM623.018 236.636V235.11H621.212V232.352H619.672V235.11H617.81V235.516L616.55 235.082C615.892 236.524 614.814 237.98 613.708 238.904C614.002 239.254 614.45 240.094 614.604 240.444C614.898 240.178 615.178 239.87 615.472 239.548V245.218H616.998V237.49C617.292 237.028 617.572 236.538 617.81 236.062V236.636H619.672V244.994H621.212V236.636H623.018ZM621.478 238.246C621.744 239.576 621.996 241.298 622.038 242.418L623.326 242.166C623.242 241.032 622.99 239.352 622.696 238.008L621.478 238.246ZM627.036 236.832H623.158V238.316H624.376V243.384C624.376 243.566 624.32 243.608 624.138 243.608C623.97 243.608 623.382 243.608 622.808 243.58C623.018 244.07 623.214 244.742 623.256 245.204C624.18 245.204 624.866 245.176 625.356 244.91C625.846 244.644 625.958 244.196 625.958 243.412V238.316H627.036V236.832ZM638.81 233.976C638.32 233.486 637.466 232.758 636.962 232.38L635.688 233.276C636.234 233.682 637.004 234.438 637.494 234.928L638.81 233.976ZM632.104 234.326C632.384 234.69 632.72 235.194 632.916 235.544C633.126 235.908 633.322 236.3 633.532 236.72C633.112 236.902 632.692 237.084 632.286 237.238C632.062 237.35 631.446 237.56 630.914 237.686L631.726 239.464C632.314 239.198 633.196 238.722 634.19 238.232L634.554 239.086C635.268 240.738 635.982 243.104 636.416 244.84L638.334 244.35C637.858 242.796 636.794 239.828 636.15 238.316L635.758 237.462C637.242 236.776 638.754 236.202 639.832 236.202C640.882 236.202 641.484 236.776 641.484 237.49C641.484 238.484 640.742 239.044 639.678 239.044C639.09 239.044 638.39 238.848 637.774 238.582L637.732 240.318C638.25 240.514 639.118 240.71 639.86 240.71C641.988 240.71 643.318 239.492 643.318 237.546C643.318 235.936 642.03 234.634 639.874 234.634C638.46 234.634 636.78 235.292 635.1 236.034C634.89 235.572 634.666 235.124 634.456 234.718C634.302 234.466 634.022 233.892 633.896 233.64L632.104 234.326ZM651.756 243.678C651.042 242.81 649.698 241.424 648.704 240.612L647.248 241.872C648.228 242.712 649.404 243.916 650.258 244.966L651.756 243.678ZM670.698 233.78H673.792V234.648H671.538V236.832H670.698V233.78ZM673.792 236.832H672.7V235.684H673.792V236.832ZM672.826 240.696H671.566V239.73H672.826V240.696ZM669.662 238.092H674.8V241.494C674.8 241.634 674.758 241.676 674.604 241.676C674.52 241.676 674.296 241.676 674.03 241.676V238.666H670.376V242.18H671.566V241.76H673.68C673.834 242.11 673.974 242.6 674.016 242.964C674.786 242.964 675.346 242.95 675.766 242.74C676.2 242.516 676.312 242.152 676.312 241.508V236.832H675.29V232.548H669.256V236.832H668.22V242.922H669.662V238.092ZM667.59 234.718C667.142 234.046 666.176 233.122 665.392 232.492L664.118 233.444C664.902 234.116 665.826 235.082 666.218 235.768L667.59 234.718ZM667.212 237.574H664.062V239.1H665.63V242.152C665.07 242.628 664.44 243.09 663.894 243.44L664.678 245.092C665.392 244.49 665.966 243.958 666.526 243.412C667.366 244.49 668.486 244.896 670.152 244.966C671.86 245.036 674.828 245.008 676.564 244.924C676.648 244.462 676.886 243.692 677.082 243.3C675.15 243.454 671.846 243.496 670.166 243.426C668.738 243.37 667.758 242.978 667.212 242.04V237.574ZM693.672 239.324V237.644H688.1V235.656H692.664V233.99H688.1V232.142H686.35V233.99H682.024V235.656H686.35V237.644H680.96V239.324H684.936C684.558 240.514 684.012 241.872 683.48 242.936L681.478 243.02L681.716 244.784C684.25 244.658 687.904 244.448 691.376 244.21C691.614 244.63 691.824 245.022 691.964 245.358L693.63 244.49C693.028 243.23 691.768 241.41 690.564 240.038L688.982 240.738C689.43 241.298 689.906 241.928 690.354 242.586C688.674 242.67 686.966 242.768 685.398 242.838C685.958 241.788 686.56 240.514 687.064 239.324H693.672ZM700.91 241.48C700.392 241.48 699.832 240.794 699.832 239.394C699.832 237.868 701.05 235.852 703.346 235.376C703.178 236.524 702.926 237.714 702.604 238.736C702.044 240.612 701.484 241.48 700.91 241.48ZM704.718 244.574C708.218 244.042 710.01 241.97 710.01 239.058C710.01 236.034 707.84 233.64 704.41 233.64C700.812 233.64 698.026 236.384 698.026 239.576C698.026 241.914 699.328 243.608 700.854 243.608C702.366 243.608 703.57 241.9 704.396 239.1C704.788 237.798 705.026 236.51 705.222 235.334C707.084 235.656 708.12 237.084 708.12 239.002C708.12 241.018 706.748 242.292 704.97 242.712C704.606 242.796 704.214 242.866 703.682 242.936L704.718 244.574ZM714.882 240.332C714.77 241.508 714.546 242.754 714.14 243.58C714.504 243.706 715.12 244 715.414 244.182C715.82 243.286 716.114 241.886 716.254 240.57L714.882 240.332ZM717.92 240.584C718.242 241.41 718.606 242.488 718.732 243.188L719.964 242.74C719.81 242.04 719.446 241.018 719.096 240.22L717.92 240.584ZM724.332 241.732H726.824V240.262H724.332V238.596H722.694V240.262H720.314V241.732H722.694V243.37H719.488V244.826H727.398V243.37H724.332V241.732ZM724.766 234.214C724.402 234.83 723.94 235.39 723.394 235.88C722.848 235.39 722.386 234.83 722.05 234.214H724.766ZM725.9 232.716L725.606 232.786H719.81V234.214H721.406L720.51 234.508C720.958 235.376 721.504 236.132 722.162 236.79C721.322 237.294 720.384 237.686 719.376 237.952C719.18 237.504 718.956 237.056 718.732 236.664L717.626 237.126C717.794 237.434 717.962 237.784 718.116 238.134L716.772 238.19C717.654 237.056 718.62 235.642 719.39 234.424L718.032 233.794C717.71 234.48 717.262 235.278 716.786 236.062C716.646 235.894 716.492 235.698 716.31 235.502C716.814 234.718 717.374 233.64 717.878 232.688L716.436 232.156C716.198 232.898 715.806 233.822 715.414 234.592C715.302 234.494 715.19 234.396 715.092 234.312L714.294 235.446C714.868 236.006 715.54 236.748 715.946 237.35C715.722 237.672 715.498 237.98 715.288 238.246L714.28 238.288L714.42 239.73L716.45 239.604V245.232H717.892V239.506L718.606 239.45C718.69 239.716 718.746 239.954 718.788 240.164L719.964 239.632C719.88 239.184 719.656 238.582 719.39 237.98C719.712 238.33 720.09 238.946 720.272 239.324C721.434 238.96 722.512 238.484 723.464 237.854C724.36 238.47 725.41 238.932 726.586 239.254C726.81 238.862 727.258 238.232 727.608 237.91C726.544 237.686 725.578 237.322 724.738 236.846C725.732 235.894 726.516 234.704 727.02 233.22L725.9 232.716ZM731.626 240.332C731.514 241.508 731.318 242.754 730.912 243.58C731.248 243.706 731.85 243.972 732.13 244.168C732.522 243.272 732.83 241.886 732.956 240.556L731.626 240.332ZM735.28 239.366C735.364 239.674 735.448 239.954 735.49 240.192L736.736 239.618C736.568 238.834 736.036 237.602 735.49 236.65L734.314 237.14C734.468 237.42 734.622 237.728 734.762 238.036L733.544 238.106C734.426 236.986 735.378 235.6 736.148 234.424L734.79 233.794C734.468 234.48 734.02 235.278 733.53 236.062C733.404 235.894 733.25 235.698 733.082 235.516C733.6 234.732 734.174 233.626 734.664 232.66L733.222 232.156C732.998 232.87 732.606 233.808 732.214 234.578C732.102 234.48 731.99 234.382 731.892 234.284L731.08 235.404C731.64 235.978 732.284 236.734 732.676 237.364C732.466 237.658 732.256 237.938 732.046 238.19L731.038 238.246L731.206 239.688L733.152 239.534V245.218H734.58V239.422L735.28 239.366ZM738.864 242.544V241.648H740.068V242.544H738.864ZM738.556 237.84H741.832V238.68H738.556V237.84ZM741.664 241.648H743.82V240.444H741.664V239.828H743.428V236.72H737.058V239.828H740.068V240.444H736.736V241.648H737.38V242.544H736.554C736.442 241.886 736.162 240.976 735.868 240.276L734.706 240.626C735 241.41 735.266 242.418 735.336 243.09L736.232 242.796V243.818H740.068V245.218H741.664V243.818H744.044V242.544H741.664V241.648ZM741.524 234.2V234.97H739.83C739.886 234.732 739.928 234.466 739.984 234.2H741.524ZM743.092 234.97V232.996H740.194L740.32 232.254L738.668 232.128C738.64 232.408 738.598 232.702 738.556 232.996H736.876V234.2H738.36C738.318 234.466 738.262 234.718 738.22 234.97H736.148V236.244H744.142V234.97H743.092ZM756.21 241.984C756.196 241.354 756.168 240.332 756.154 239.562C757.008 239.17 757.792 238.862 758.408 238.624C758.884 238.428 759.612 238.148 760.06 238.036L759.36 236.426C758.856 236.664 758.366 236.902 757.834 237.14C757.26 237.392 756.672 237.63 755.958 237.966C755.65 237.252 754.95 236.888 754.11 236.888C753.648 236.888 752.906 236.986 752.542 237.168C752.836 236.762 753.116 236.258 753.34 235.768C754.824 235.712 756.532 235.6 757.862 235.404L757.876 233.78C756.658 234.004 755.258 234.116 753.956 234.186C754.124 233.626 754.222 233.15 754.292 232.814L752.472 232.66C752.458 233.052 752.36 233.612 752.192 234.242H751.52C750.82 234.242 749.784 234.2 749.084 234.088V235.712C749.84 235.782 750.862 235.81 751.422 235.81H751.59C750.974 237.042 749.994 238.274 748.538 239.618L750.022 240.724C750.498 240.122 750.89 239.618 751.31 239.198C751.842 238.694 752.696 238.246 753.48 238.246C753.858 238.246 754.222 238.372 754.446 238.722C752.864 239.534 751.184 240.654 751.184 242.418C751.184 244.21 752.822 244.728 754.992 244.728C756.294 244.728 757.988 244.616 758.912 244.504L758.968 242.698C757.75 242.95 756.21 243.104 755.034 243.104C753.676 243.104 753.018 242.894 753.018 242.124C753.018 241.438 753.578 240.892 754.6 240.332C754.586 240.934 754.572 241.578 754.544 241.984H756.21ZM766.36 233.066C766.36 233.5 766.29 234.032 766.234 234.424C766.066 235.488 765.66 238.106 765.66 240.206C765.66 242.082 765.926 243.664 766.206 244.63L767.774 244.518C767.76 244.322 767.76 244.084 767.76 243.944C767.746 243.79 767.788 243.496 767.83 243.3C767.984 242.544 768.432 241.13 768.824 239.996L767.97 239.31C767.76 239.772 767.536 240.234 767.354 240.724C767.312 240.444 767.298 240.108 767.298 239.828C767.298 238.442 767.746 235.39 767.956 234.466C768.012 234.214 768.18 233.514 768.292 233.234L766.36 233.066ZM773.36 241.676C773.36 242.488 773.066 242.936 772.212 242.936C771.484 242.936 770.924 242.684 770.924 242.124C770.924 241.606 771.456 241.284 772.24 241.284C772.618 241.284 772.996 241.34 773.36 241.438V241.676ZM777.742 242.236C777.098 241.634 776.23 240.92 775.068 240.444C775.012 239.506 774.942 238.4 774.914 237.056C775.67 237 776.398 236.916 777.07 236.818V235.096C776.412 235.236 775.684 235.334 774.928 235.418C774.928 234.802 774.956 234.284 774.97 233.976C774.984 233.682 775.012 233.346 775.054 233.08H773.066C773.108 233.36 773.15 233.78 773.15 233.99C773.164 234.284 773.164 234.844 773.178 235.53C772.856 235.544 772.52 235.544 772.198 235.544C771.372 235.544 770.574 235.502 769.776 235.418V237.07C770.602 237.126 771.386 237.154 772.198 237.154C772.52 237.154 772.856 237.154 773.192 237.14C773.206 238.12 773.248 239.128 773.29 239.982C773.01 239.94 772.702 239.926 772.38 239.926C770.49 239.926 769.3 240.892 769.3 242.306C769.3 243.762 770.504 244.574 772.408 244.574C774.284 244.574 775.04 243.622 775.124 242.306C775.67 242.684 776.23 243.146 776.804 243.692L777.742 242.236ZM789.684 234.102L788.466 234.62C788.97 235.334 789.334 236.006 789.74 236.902L791 236.356C790.692 235.712 790.076 234.69 789.684 234.102ZM791.56 233.346L790.356 233.892C790.874 234.592 791.252 235.236 791.7 236.118L792.918 235.53C792.61 234.9 791.966 233.906 791.56 233.346ZM783.846 232.996C783.972 233.542 784.028 234.2 784.028 234.858C784.028 236.062 783.888 239.688 783.888 241.55C783.888 243.916 785.358 244.91 787.626 244.91C790.79 244.91 792.75 243.076 793.646 241.746L792.386 240.206C791.392 241.718 789.936 243.034 787.64 243.034C786.576 243.034 785.736 242.572 785.736 241.172C785.736 239.45 785.834 236.356 785.904 234.858C785.918 234.312 785.988 233.598 786.086 233.01L783.846 232.996ZM801.276 241.998C800.772 241.998 800.492 241.564 800.492 240.892C800.492 240.038 800.856 239.058 801.5 238.288C801.906 239.338 802.354 240.276 802.788 240.948C802.284 241.578 801.766 241.998 801.276 241.998ZM805.07 236.44C804.748 237.462 804.328 238.526 803.838 239.408C803.516 238.862 803.166 238.064 802.858 237.21C803.502 236.818 804.23 236.538 805.07 236.44ZM807.324 234.466C807.408 234.116 807.534 233.444 807.646 233.066L805.728 232.884C805.742 233.206 805.7 233.794 805.63 234.2C805.588 234.41 805.546 234.634 805.49 234.872C804.426 234.914 803.404 235.152 802.354 235.698C802.256 235.404 802.172 235.11 802.102 234.844C801.99 234.438 801.878 233.976 801.794 233.528L799.974 234.088C800.212 234.592 800.38 235.026 800.534 235.53C800.646 235.908 800.772 236.286 800.898 236.65C799.652 237.756 798.854 239.436 798.854 241.032C798.854 242.824 799.918 243.804 801.066 243.804C802.088 243.804 802.858 243.328 803.796 242.32C803.936 242.502 804.104 242.684 804.272 242.866L805.658 241.76C805.406 241.508 805.154 241.228 804.902 240.934C805.7 239.73 806.302 238.134 806.778 236.524C808.178 236.902 809.018 238.036 809.018 239.576C809.018 241.312 807.828 242.866 804.776 243.132L805.84 244.728C808.738 244.294 810.838 242.614 810.838 239.674C810.838 237.238 809.368 235.488 807.198 234.998L807.324 234.466ZM825.062 234.242C824.712 234.536 824.306 234.774 823.788 235.082C823.13 235.446 821.926 236.062 820.792 236.72C820.232 235.656 819.588 234.326 819.056 232.884L817.306 233.598C817.936 235.068 818.608 236.538 819.252 237.728C817.922 238.708 816.956 239.842 816.956 241.382C816.956 243.762 819.042 244.532 821.8 244.532C823.606 244.532 825.076 244.392 826.252 244.196L826.28 242.194C825.048 242.474 823.172 242.698 821.744 242.698C819.826 242.698 818.86 242.166 818.86 241.172C818.86 240.206 819.63 239.408 820.792 238.652C822.052 237.84 823.788 237.028 824.656 236.594C825.16 236.342 825.608 236.104 826.028 235.852L825.062 234.242ZM834.47 232.912C834.596 233.458 834.652 234.13 834.652 234.788C834.652 235.978 834.512 239.618 834.512 241.48C834.512 243.846 835.982 244.84 838.25 244.84C841.414 244.84 843.374 242.992 844.27 241.676L843.01 240.122C842.016 241.634 840.56 242.95 838.264 242.95C837.2 242.95 836.36 242.502 836.36 241.102C836.36 239.38 836.458 236.272 836.528 234.788C836.542 234.228 836.612 233.528 836.71 232.94L834.47 232.912ZM855.75 238.694C856.618 238.582 857.458 238.54 858.424 238.54C859.264 238.54 860.118 238.624 860.804 238.708L860.846 237.042C860.034 236.958 859.194 236.916 858.41 236.916C857.514 236.916 856.52 236.986 855.75 237.056V238.694ZM856.842 234.242C856.086 234.424 855.302 234.578 854.518 234.704L854.63 234.172C854.7 233.864 854.826 233.248 854.924 232.87L852.81 232.702C852.838 233.024 852.824 233.584 852.754 234.102C852.726 234.326 852.684 234.592 852.628 234.9C852.208 234.928 851.802 234.942 851.396 234.942C850.822 234.942 850.36 234.914 849.646 234.83L849.688 236.566C850.178 236.594 850.696 236.622 851.368 236.622C851.648 236.622 851.956 236.608 852.278 236.594C852.18 236.986 852.082 237.378 851.984 237.742C851.466 239.688 850.416 242.6 849.59 243.986L851.536 244.63C852.292 243.006 853.23 240.164 853.734 238.218C853.888 237.658 854.028 237.042 854.154 236.44C855.078 236.328 856.016 236.174 856.842 235.992V234.242ZM854.896 240.388C854.784 240.934 854.658 241.606 854.658 242.236C854.658 243.636 855.848 244.448 858.186 244.448C859.292 244.448 860.23 244.35 861.014 244.252L861.084 242.474C860.09 242.656 859.124 242.754 858.2 242.754C856.716 242.754 856.366 242.306 856.366 241.704C856.366 241.396 856.45 240.934 856.562 240.542L854.896 240.388ZM870.576 239.618C870.338 239.24 869.33 237.7 868.952 237.182V236.566H870.352V235.026H868.952V232.142H867.44V235.026H865.76V236.566H867.314C866.964 238.218 866.222 240.164 865.438 241.256C865.676 241.634 866.012 242.264 866.166 242.726C866.642 242.026 867.076 241.046 867.44 239.968V245.204H868.952V239.17C869.26 239.772 869.554 240.402 869.722 240.808L870.576 239.618ZM873.11 241.354C871.92 241.97 870.688 242.6 869.862 242.978L870.576 244.378C871.472 243.888 872.564 243.272 873.544 242.698L873.11 241.354ZM870.66 239.828C871.164 240.374 871.738 241.13 871.99 241.62L873.18 240.78C872.9 240.304 872.312 239.59 871.794 239.086L870.66 239.828ZM877.226 239.044C876.904 239.506 876.358 240.094 875.868 240.556C875.644 240.164 875.448 239.758 875.294 239.324V238.778H878.556V237.42H875.294V236.804H878.01V235.558H875.294V234.998H878.304V233.696H876.946C877.17 233.346 877.422 232.926 877.674 232.506L876.022 232.128C875.882 232.576 875.602 233.22 875.392 233.696H873.656C873.516 233.276 873.18 232.632 872.858 232.156L871.542 232.604C871.738 232.94 871.948 233.332 872.088 233.696H870.66V234.998H873.684V235.558H871.038V236.804H873.684V237.42H870.394V238.778H873.684V243.552C873.684 243.72 873.628 243.79 873.46 243.79C873.292 243.79 872.746 243.79 872.27 243.762C872.48 244.168 872.662 244.812 872.718 245.246C873.586 245.246 874.244 245.204 874.706 244.966C875.154 244.714 875.294 244.322 875.294 243.566V242.11C875.924 243.16 876.75 244.014 877.772 244.574C878.01 244.154 878.472 243.538 878.822 243.23C877.968 242.88 877.226 242.334 876.638 241.648C877.184 241.2 877.898 240.528 878.486 239.926L877.226 239.044ZM892.78 235.432L892.472 235.502H888.356C888.692 234.732 888.972 233.976 889.224 233.234L887.362 232.814C886.662 235.348 885.136 238.526 883.036 240.388C883.512 240.598 884.254 241.032 884.646 241.326C885.794 240.234 886.774 238.75 887.586 237.168H891.59C891.114 238.274 890.428 239.534 889.686 240.57C888.944 240.178 888.188 239.814 887.502 239.52L886.466 240.92C888.37 241.802 890.694 243.258 891.744 244.378L892.906 242.782C892.486 242.362 891.898 241.928 891.24 241.494C892.374 239.87 893.466 237.826 894.068 236.118L892.78 235.432ZM911.904 236.356C911.204 235.852 909.482 234.914 908.488 234.48L907.592 235.852C908.544 236.272 910.126 237.182 910.924 237.826L911.904 236.356ZM906.682 234.228C906.136 234.396 905.492 234.55 904.82 234.662C905.016 233.92 905.184 233.22 905.296 232.772L903.378 232.576C903.35 233.29 903.196 234.13 903 234.9C902.58 234.928 902.16 234.942 901.754 234.942C901.25 234.942 900.508 234.914 899.906 234.844L900.032 236.468C900.634 236.496 901.194 236.51 901.768 236.51C902.006 236.51 902.244 236.51 902.482 236.496C901.866 237.994 900.774 240.038 899.654 241.396L901.348 242.25C902.468 240.668 903.658 238.26 904.316 236.314C905.24 236.188 906.094 236.006 906.724 235.838L906.682 234.228ZM907.018 241.942C907.018 242.684 906.71 243.23 905.772 243.23C905.016 243.23 904.582 242.88 904.582 242.362C904.582 241.872 905.1 241.536 905.898 241.536C906.29 241.536 906.654 241.592 907.018 241.676V241.942ZM906.794 237.084C906.836 237.924 906.906 239.142 906.948 240.178C906.654 240.15 906.332 240.122 906.01 240.122C904.078 240.122 902.944 241.172 902.944 242.53C902.944 244.056 904.302 244.826 906.024 244.826C907.998 244.826 908.698 243.818 908.698 242.53V242.404C909.454 242.866 910.084 243.426 910.574 243.874L911.498 242.39C910.798 241.76 909.818 241.06 908.628 240.612C908.586 239.926 908.558 239.254 908.544 238.862C908.53 238.246 908.502 237.672 908.544 237.084H906.794ZM919.394 242.754C919.03 242.754 918.386 242.362 918.386 241.942C918.386 241.452 918.946 240.878 919.8 240.444C919.828 241.172 919.842 241.802 919.842 242.152C919.842 242.628 919.646 242.754 919.394 242.754ZM921.368 237.77C921.368 237.364 921.368 236.944 921.382 236.524C922.292 236.412 923.244 236.272 924.028 236.09L923.986 234.354C923.258 234.564 922.348 234.746 921.438 234.872C921.452 234.522 921.466 234.186 921.48 233.878C921.508 233.528 921.564 232.926 921.592 232.674H919.688C919.73 232.926 919.786 233.598 919.786 233.892C919.786 234.13 919.786 234.536 919.772 235.026C919.492 235.04 919.226 235.054 918.974 235.054C918.47 235.054 917.868 235.04 917.056 234.942L917.084 236.622C917.686 236.678 918.386 236.692 919.016 236.692C919.24 236.692 919.492 236.678 919.758 236.664V237.826C919.758 238.148 919.758 238.47 919.772 238.792C918.078 239.534 916.664 240.78 916.664 241.998C916.664 243.468 918.582 244.63 919.94 244.63C920.836 244.63 921.466 244.182 921.466 242.46C921.466 241.984 921.424 240.92 921.396 239.814C922.25 239.576 923.146 239.436 924 239.436C925.204 239.436 926.044 239.982 926.044 240.92C926.044 241.928 925.148 242.502 924.028 242.698C923.538 242.782 922.95 242.796 922.32 242.796L922.964 244.574C923.51 244.546 924.14 244.49 924.784 244.35C926.982 243.804 927.836 242.572 927.836 240.934C927.836 239.03 926.156 237.896 924.028 237.896C923.258 237.896 922.306 238.022 921.368 238.26V237.77ZM924.784 235.53C925.652 235.95 927.458 236.972 928.116 237.546L928.956 236.118C928.228 235.6 926.618 234.69 925.554 234.172L924.784 235.53ZM937.622 232.576H933.492V233.836H937.622V232.576ZM936.264 241.746V243.342H934.766V241.746H936.264ZM937.678 240.43H933.366V245.204H934.766V244.658H937.678V240.43ZM933.408 239.716H937.608V238.456H933.408V239.716ZM937.608 236.51H933.408V237.756H937.608V236.51ZM932.75 235.824H938.07V234.508H932.75V235.824ZM943.656 243.048H940.478V241.088H943.656V243.048ZM945.882 237.742V236.188H942.872V234.242C943.824 234.088 944.72 233.906 945.518 233.668L944.342 232.282C942.858 232.758 940.506 233.122 938.406 233.304C938.588 233.668 938.798 234.298 938.854 234.704C939.596 234.648 940.394 234.578 941.178 234.48V236.188H938.168V237.742H941.178V239.59H938.896V245.218H940.478V244.546H943.656V245.162H945.322V239.59H942.872V237.742H945.882Z" fill="black"/>
</svg>
