<svg xmlns="http://www.w3.org/2000/svg" viewBox="0 0 1184.2 293.7"><path d="M151.5 134.2c-2.4-19.4-17.2-26.6-35.9-24.3-14.4 1.8-31.1 9.1-46.1 20.5C17.1 170-2.6 207.8.3 231.1c.7 5.7 2.9 10.5 5.9 14.3 4.9 6.1 11.6 7.8 19.2 6.9 22.6-2.8 53.2-30.6 73.1-51.8 4.5-4.7 6.2-7.9 6.1-9.1-.1-.5-.3-.7-1-.6-.9.1-2.5.8-4.3 2.4-41.4 34.7-64.5 48-76.4 49.5-6.6.8-9.5-2.1-10.1-7.1-.9-7.3 3.9-19.5 9.7-30.4C44 165.5 95.7 122.1 124 118.6c9.4-1.1 15.8 2.5 17 12.3.2 1.4.3 2.7.3 4.4-.1 12.1-8.8 45.6-37.6 91.8-2.5 4-32.6 28.8-39.1 45.8-1.9 5.1-2.8 9.6-2.4 12.8.7 5.7 4.5 8.5 8.6 8 1.8-.2 3.8-.9 5.7-2.6 10.9-9.2 28.2-39.8 41.6-62.8.6-1 1.4-2 1.7-2.8 10.5-14.5 25.1-22.1 35.2-30.3 2.3-1.9 3.3-3.6 3.1-4.6-.1-.5-.3-.9-1-.8-.5.1-1.1.4-1.8.7-14 8.9-29.6 21.2-29.6 21.2 21-35.9 27.8-61.3 25.8-77.5zm68.2 53.3c-.4-3.2-1.7-6.1-3.6-8.6-3.3-4.5-8.4-8.2-13.8-10.1 1.6-2.3 2.6-3.6 2.4-5.2-.2-1.6-2-3.2-5.9-6.5-1.3-1-2.3-1.3-3.4-1.2-1.1.1-2.2.7-3.9 2.3-18.1 16.6-42.8 49.5-40.3 70.3.8 6.2 3.9 11.1 10.1 14.3 2.5 1.3 5.5 1.6 8.7 1.2 20.7-2.4 52.4-35.1 49.7-56.5zm-8.1-.4c1.8 15.1-11.9 35.1-30.3 45.9-4.1 2.4-7.9 4-10.6 4.3-3.9.5-6.6-1-7.8-4.8-3.9-12.5 18.6-44.7 34.3-58.2 7.2.3 10.5 2.4 12.7 7 .9 1.7 1.4 3.7 1.7 5.8zm63.8-61.1c.5-3.5-.9-3.4-1.1-3.1-5.3 5.8-12.5 5.5-15.3 7.4-1.1.8-2.2 2.8-1 5 1.5 2.8 4 3.9 6.7 3.6 4.6-.6 9.6-5.2 10.7-12.9zm.5 66.4c-.1-.7-.4-1.1-1.1-1s-1.5.7-2.3 1.7c-13.1 16.2-29.3 34.9-35.5 35.6-1.1.1-1.9-.5-2.1-2.1-.1-.7 0-1.9.1-3 2.3-17.2 27.7-49.8 26.4-60.7-.6-5-7.7-7.6-9.9-7.4-.7.1-.9.1-1.1.6-.6 1-.7 1.7-.7 2.2.1.7.8.8.9 1.5 0 .2.1.9-1.2 3.4-12.8 24.3-24.3 49.6-22.6 63 .4 3.7 1.9 6.3 4.5 8 1.3.8 2.7 1.1 4.3.9 11-1.3 28.5-24.4 38.8-38.6 1.4-1.8 1.7-3.2 1.5-4.1zm89.9-6.6c-.1-.7-.6-.9-1-.8-1.1.1-2.9 1.3-4.6 3.8-14 18.2-21.9 25.4-25.3 25.8-1.4.2-1.9-.7-2.1-2.3-.4-3.4.8-8.4 5.1-19.2 7.3-18 11-25.9 10-33.7-.2-1.8-.6-3.4-1.7-4.7-4-4.6-7.1-6.5-12.1-5.9-9.6 1.2-23 12.6-43.5 38.5-1.4 1.8-2.5 2.6-2.9 2.7-.2 0-.2 0-.3-.4-.1-.5.2-2.1 1.5-4.6 8.6-16.8 14.3-28.9 13.3-36.9-.6-4.6-3.5-7.9-9.6-9.9-.7-.1-1 1.1-.9 2 .1.7.4 1.1 1.1 1.3.5.2.8.6.8 1.1 1 8.4-32.3 59.6-29.8 80.4.4 3.4 1.9 6 4.6 7.5 1.3.8 2.6-1.5 2.9-2.7 4.8-19.6 49.1-70.4 60.9-71.9 1.6-.2 2.6.6 2.8 2.4.4 3.2-1.8 10-7.1 21.3-5 10.3-11.7 23.9-10.5 33.3.5 4.3 2.6 7.6 7.2 9.5 1.7.7 3.6.9 5.6.7 9.8-1.2 21.2-14.2 33.4-32.1 1.8-2.6 2.3-4.3 2.2-5.2zm207.1-95.2C569.8 65.7 549 53 511.5 59.2c.1-.9.2-1.9.1-2.6-.2-1.6-1.2-4.3-3.8-6.7-1.3-1.5-2.8-1.7-3.9-1.6-1.8.2-3.5 2-6.5 5.4-9.2 10.2-10.8 14.1-15.6 16.3-38.5 17-66.6 46.4-64.4 64.7.9 7.1 5.9 12.3 16.4 14.9.5.2.7.4.8 1.1.1.5-.1 1.4-.4 2.4-3.6 8.8-4.3 19.8-3.1 29.1.3 2.3.6 4.8 1.3 6.8 5.1 17 16.9 22.7 32.4 20.8 41.8-5.1 106.6-67.6 108.2-109.2.2-3.6.2-6.8-.1-10zm-10.6-4.7c2.3 18.7-18.5 51.2-54.4 85.7-17 16.2-34.4 25.8-47.4 27.4-10.7 1.3-18.2-2.9-19.6-14-.9-7.1.9-17 6-30.2.5-1.2 1.4-1.8 2.3-1.9 1.1-.1 2.3.2 4.2.4 1.9.2 4.2 0 6.7-.4 7.1-.9 15.6-3.1 19.2-5.6 1.7-1.1 2.2-2.6 2.1-3.3-.1-.5-.6-1.1-2.6-.4-3.1 1.3-9.7 3.7-15.9 4.5-2.3.3-4.6.1-7.2 0-2.3-.2-3.8-.5-3.9-1.4-.1-.9.7-2.2 1.6-4.1 9.9-21.4 24-44.2 43.3-62.3 3.3-3 5.4-5.1 7.3-6.7 7.4-1.8 14.2-3.1 20.1-3.9 24.7-3 36.6 3.4 38.2 16.2zm-135.2 51.6c-1.6-12.8 22.2-37.7 36.3-43.9.7-.3 1.3-.4 1.4-.2 0 .2-.3 1-.7 1.5-11.5 16-20.9 35.2-27.1 49.2-.2.5-.1.7-.4.7-.2 0-.7.1-1.6 0-5.1-1-7.5-3.7-7.9-7.3zm233.4 11.6c-.1-.7-.3-.9-.8-.8-.9.1-2.4 1.2-4.2 3.8-11.3 15.8-20.7 25.7-25 26.2-1.4.2-2.4-.4-2.7-3.1-1.1-8.9 6-28.8 14.4-44.6 1.3-2.5 3.5-7.2 3.2-10.1-.3-2.3-1.9-4.2-5.6-5.8-1-.6-1.7-.7-2.6-.6-1.6.2-3.5 1.8-5.7 6.3-4.8 9.6-31.5 45.1-46.1 58.7-2.3 2.1-4.4 3.6-5.8 3.7-.9.1-1.7-.5-1.9-2.1-.1-.9 0-1.9.1-3.3.9-11.2 12-30.2 19.9-47.2 1.8-3.9 2.6-9.4 2.3-11.9-.9-7.3-7.7-7.9-8.6-7.7-.9.1-.8 1.3-.6 2.4 1 8.4-25.3 41.6-26.4 65.8-.6 10 7.9 13.4 13.4 12.7 1.4-.2 2.7-.8 3.8-1.2 9.3-3.9 26.2-24.8 38.1-44.5.6-1 1-1.3 1.5-1.3.2 0 .3.2.3.4.1.7-.1 1.4-.4 2.6-2 6.3-5.6 18.3-4.5 27.7.5 4.3 1.8 7.2 4.6 8.9 2.5 1.5 5.4 2.1 7.4 1.9 8.4-1 17.9-12.6 29-29.5 2-3.3 3-6.2 2.9-7.4zm82.8-20.6c-.1-.9-.7-1.5-1.6-1.4-.7.1-1.8.7-2.7 2.2-10.3 14-20 26.1-27.6 33.5-1.7 1.6-3.2 2.5-4.1 2.6-.7.1-1.2-.3-1.3-1.2-.1-1.1.3-3.3 1.1-5.9 4.2-12.8 11.9-29.7 10.5-40.7-.3-2.1-1-4.1-1.8-5.6-3.2-5.2-7.1-6.5-12.1-5.9-3.2.4-6.5 1.5-10.7 3.2-1.3.6-2.7.3-2.8-.1-.1-.5.3-1.2.7-1.9 2.1-3.5 3.1-6.6 2.8-9.4-.4-3.7-2.9-6.4-7.1-8.6-1-.6-2.4-.9-3.8-.7-1.1.1-2.3.5-3.1 1.5-4.2 5.4-6.6 10.8-5.9 15.8.4 3.4 2 6.5 4.6 9.4.1 1.1-14.1 24.7-21.8 34.2-.8 1-1.3 2.3-1.3 2.9.1.7.6 1.1 1.5 1 .9-.1 2.7-1 4.5-3.3 8.5-10.3 17.7-25.4 21.9-31.4 1-1.3 3.3-1.3 4.7-1.7 5.1-1.6 10.3-5 15.1-5.6 3.2-.4 4.8 1 5.1 3.5 1.1 8.7-10.9 30.3-15.3 41.3-2 4.9-2.4 8.6-2.1 11.6.6 5 3.7 7.9 8.2 10.3 1.5.7 2.9 1 4 .9 2.7-.3 4.4-1.9 9.1-7.1 9.7-11.4 20.6-26.4 30.7-40.8.6-1 .7-1.9.6-2.6zM956.4 1.1c-.1-.7-.4-1.1-.6-1.1-.7.1-1.3.9-2.5 2.6-5.4 9-38.5 13.1-73.2 18.7-42.9 7.1-88.3 16.9-87.2 42.5.4 10.6 7.6 12.7 13.7 13.6.1-.7-5.1-2.2-6.1-9.9-.2-1.4-.3-2.7-.1-4.6 1.5-14.5 27.9-21.7 61.9-25.9 21-2.6 44.9-3.9 67.5-5.3 19.1-1.2 27.3-25.6 26.6-30.6zm-79.3 52.1c-.9-5.7-2.3-7.4-3.4-7.2-.7.1-1.2 1.3-.9 3.6.4 3.2-25.6 44.2-34.8 65.7-6.3 14.9-7.5 25.7-6.5 33.7 1.2 10 6.2 15 10.5 19.3.8.6 1.5 1 2 .9 1.1-.1.9-2 .6-4.7-1.1-8.9 3.3-24 9.2-40.5 9.7-28.3 25.1-60.3 23.3-70.8zm83.5 54c-.1-.7-.6-1.1-1.3-1-.7.1-1.3.4-2.2 1.2-10.3 12.4-42.4 40-56.5 41.7-3.7.4-7-.8-6.7-7.1 1.5-23.6 18.8-45.2 34.1-56.6 2.5-1.9 4.7-2.9 6.3-3.1 2.3-.3 3.6.9 3.8 3 .3 2.3-.9 5.9-3.9 10s-12.5 13.1-20.5 19.7c-1.5 1.1-2 2.6-1.9 3.5.1.7.7 1.5 2.2.9 13.5-5.1 29.2-17 31.1-28.1.1-1.2.2-2.3 0-3.7-1-8.4-9.3-19.2-17.3-18.3-11.2 1.4-48.9 45.6-45.8 70.5.2 1.8.6 3.4 1.3 4.9 3.9 9.5 10.6 12.6 18.6 11.6 19.6-2.4 45.9-28.6 58-47 .7-.7.8-1.5.7-2.1zm90.6-13.5c-.1-.9-.6-1.1-1.3-1-.7.1-1.8.7-3 2.2-16.4 22.9-28.8 35.3-33.4 35.8-1.4.2-2.1-.2-2-3 .7-9.1 5.8-22.5 10.6-32.4.7-1.7 1-3.1.8-5.2-.5-3.9-3.2-7-6.8-6.6-.9.1-1.8.5-2.9 1-6.9 3.9-29.9 34.3-40.1 44.8-4.1 4.2-6.4 6.1-8 6.3-.9.1-1.5-.5-1.6-1.7-.1-1.1-.1-2.8.6-4.9 9.3-31.7 36.8-56.7 49.2-58.2 2-.3 3.8.5 4.8 1.7 1.1 1.3 2.4 2.3 3.3 2.1 1.1-.1 2.8-1.3 1.5-4.4-4-9.7-9.4-12.3-14.9-11.6-2.5.3-5.2 1.3-7.8 2.8-18.3 11.3-40.1 39.9-49.6 67.5-.5 1.5-.8 3.1-.6 4.7.8 6.4 7.6 12.5 14 11.7 2.1-.3 4-1.2 5.9-2.8 12.4-10.6 26.7-33.9 35-43.5.4-.3.6-.5.9-.6.5-.1 1 .3 1.1 1 .1.5-.1.9-.3 1.4-4.4 11-6.3 20.2-5.5 26.9.8 6.6 4.3 10.4 9.8 9.7 1.8-.2 4.3-1 6.7-2.4 8.5-4.7 28.8-29.9 33.5-40 .2-.4.1-.8.1-1.3zm133-9.6c-.1-.5-.3-.7-.8-.6-.9.1-2.8 1.7-5.6 5.6-12.6 17.8-21.8 27.7-26.4 28.3-1.6.2-2.7-.8-2.9-3.1-.6-5 2.3-16.7 9.8-35.7 3.2-8 4.5-15.9 3.8-22-.9-7.5-5-12.4-12.5-11.4-8.7 1.1-22.2 10.1-40.5 32.8-1.2 1.3-2.1 1.9-2.5 1.9-.5.1-.7-.4-.8-.8-.1-.7 0-1.9.3-3.1 1.2-5.2 1.4-9.4 1-12.6-.9-7.1-4.9-10.1-10.4-9.4-6.4.8-14.5 6.2-22 15.2-2.2 2.8-10.4 11.7-11.5 12.1.1-1.4 1-3.1 2.1-5.8 4.4-11.2 6.3-18.6 5.7-23.4-.5-3.9-2.6-6.4-5.8-7.6-.5-.2-1-.3-1.4-.3-.9.1-1.5.9-1.4 1.8.1 1.1 1.3 1.2 1.4 2.1.9 7.3-31.2 55-28.5 77.4.5 3.9 2 6.9 4.8 8.9 1 .8 1.8 1.2 2 1.1.5-.1.6-.5.9-1.7 7.3-23.6 32.2-60.7 43.8-70 2.7-2.2 4.9-3.4 6.5-3.6 1.4-.2 2.2.7 2.4 2.3.3 2.7-.7 7.7-3.7 15.3-7.8 19.7-12.3 33.7-11.3 42.2.4 3.4 1.9 5.8 4.1 7.1 2.5 1.5 4.2 2 5.3 1.9.9-.1 1.3-.6 1.4-1.6 8.7-38.8 45.1-74.4 56.3-75.7 1.8-.2 2.8.3 3 2.2.2 1.4-.3 3.3-1.2 5.7-4.9 13.1-17.1 38.2-15.3 53.1.8 6.4 4.1 11.1 11.4 12 .9.1 1.9.2 2.8.1 8.9-1.1 19.5-13.3 32.4-32.7 2.5-3.7 3.5-6.6 3.3-8z" opacity=".1" fill="#222629"/><div xmlns="" id="divScriptsUsed" style="display: none"/><script xmlns="" id="globalVarsDetection" src="chrome-extension://cmkdbmfndkfgebldhnkbfhlneefdaaip/js/wrs_env.js"/></svg>
